<svg width="179" height="28" viewBox="0 0 179 28" fill="none" xmlns="http://www.w3.org/2000/svg">
<path d="M13.4283 27.0321C6.04828 27.0321 0.612281 21.3081 0.612281 14.0721V14.0001C0.612281 6.8361 5.97628 0.968097 13.5723 0.968097C18.2523 0.968097 21.0603 2.5881 23.4723 4.8921L20.6283 8.1681C18.5763 6.2961 16.4523 5.0721 13.5363 5.0721C8.78428 5.0721 5.25628 8.9961 5.25628 13.9281V14.0001C5.25628 18.9321 8.74828 22.9281 13.5723 22.9281C16.6683 22.9281 18.6483 21.7041 20.8083 19.6881L23.6523 22.5681C21.0243 25.3041 18.1443 27.0321 13.4283 27.0321ZM26.1464 26.6001L37.2344 1.2201H41.3384L52.4264 26.6001H47.7464L45.1904 20.5161H33.2744L30.6824 26.6001H26.1464ZM34.8944 16.5921H43.5704L39.2144 6.5121L34.8944 16.5921ZM56.7478 26.6001V1.4001H61.1758V22.5681H74.4238V26.6001H56.7478ZM79.0017 26.6001V1.4001H83.4297V22.5681H96.6777V26.6001H79.0017ZM115.217 26.6001V5.7201L110.681 6.9801L109.745 3.3801L116.549 1.2201H119.609V26.6001H115.217ZM124.846 26.6001V23.1081L133.522 15.7281C136.942 12.7761 138.238 11.1921 138.238 8.9241C138.238 6.4761 136.474 5.0001 134.17 5.0001C131.866 5.0001 130.282 6.2601 128.374 8.7801L125.206 6.2961C127.618 2.9481 129.994 1.0401 134.494 1.0401C139.426 1.0401 142.81 4.0641 142.81 8.5641V8.6361C142.81 12.6321 140.722 14.7561 136.258 18.3921L131.074 22.7121H143.062V26.6001H124.846ZM146.924 26.6001V23.1081L155.6 15.7281C159.02 12.7761 160.316 11.1921 160.316 8.9241C160.316 6.4761 158.552 5.0001 156.248 5.0001C153.944 5.0001 152.36 6.2601 150.452 8.7801L147.284 6.2961C149.696 2.9481 152.072 1.0401 156.572 1.0401C161.504 1.0401 164.888 4.0641 164.888 8.5641V8.6361C164.888 12.6321 162.8 14.7561 158.336 18.3921L153.152 22.7121H165.14V26.6001H146.924ZM173.646 26.6001V5.7201L169.11 6.9801L168.174 3.3801L174.978 1.2201H178.038V26.6001H173.646Z" fill="#1A2F4D"/>
</svg>
