<svg width="176" height="80" viewBox="0 0 176 80" fill="none" xmlns="http://www.w3.org/2000/svg">
<g clip-path="url(#clip0_5_469)">
<path d="M33.2584 38.9664C31.3697 38.047 28.7332 37.2332 27.6934 35.2417C26.821 33.575 27.4675 31.4701 28.9513 30.3902C30.6959 29.1186 32.943 29.5725 34.5592 30.8049C35.2251 31.3136 35.8521 31.873 36.4324 32.4756C36.8179 32.8746 37.1723 33.2894 37.5773 33.6689L38.6872 31.1766C38.6872 31.1531 37.8305 30.5271 37.7292 30.4645C35.965 29.3651 33.7998 28.5122 31.6968 28.5122C27.7752 28.5122 24.9556 30.9966 24.9556 34.2949C24.9556 37.284 27.3546 39.3811 29.8509 40.5666C32.2693 41.7169 36.0079 42.4211 36.3973 45.4963C36.7751 48.462 34.641 51.1147 31.7708 50.9034C29.7301 50.7508 27.9893 49.0372 25.9214 46.9127L24.8115 49.4049L25.1309 49.6592C26.5952 50.5826 28.6047 52.0459 31.6656 51.9989C34.7967 51.952 38.0018 50.0075 38.6561 46.7914C39.4622 42.8202 36.4129 40.4962 33.2584 38.9625V38.9664Z" fill="url(#paint0_linear_5_469)"/>
<path d="M145.378 38.9664C143.484 38.047 140.841 37.2332 139.798 35.2417C138.924 33.575 139.572 31.4701 141.06 30.3902C142.809 29.1186 145.058 29.5725 146.682 30.8049C147.35 31.3136 147.979 31.873 148.56 32.4756C148.947 32.8746 149.302 33.2894 149.708 33.6689L150.821 31.1766C150.821 31.1531 149.962 30.5271 149.861 30.4645C148.092 29.3651 145.921 28.5122 143.812 28.5122C139.88 28.5122 137.054 30.9966 137.054 34.2949C137.054 37.284 139.459 39.3811 141.962 40.5666C144.386 41.7169 148.135 42.4211 148.525 45.4963C148.904 48.462 146.764 51.1147 143.887 50.9034C141.841 50.7508 140.095 49.0372 138.022 46.9127L136.909 49.4049L137.229 49.6592C138.697 50.5826 140.712 52.0459 143.781 51.9989C146.92 51.952 150.134 50.0075 150.79 46.7914C151.598 42.8202 148.541 40.4962 145.382 38.9625L145.378 38.9664Z" fill="url(#paint1_linear_5_469)"/>
<path d="M61.443 32.8012V51.7439H62.1133H63.2435H63.8241V29.607L64.2879 28.9939V28.5488H61.7236L54.1903 38.5609L46.6571 28.5488H44.0928V28.9939L45.1411 30.3763V51.7439H46.2674V31.9265L54.1942 42.2433L55.4803 40.5524L61.443 32.8012Z" fill="url(#paint2_linear_5_469)"/>
<path d="M96.4614 52H98.8427V29.4873H105.92V28.5488H89.3838V29.4873H96.4614V52Z" fill="url(#paint3_linear_5_469)"/>
<path d="M123.552 38.4658H111.998V28.5488H109.616V52H111.998V39.4043H123.552V52H125.933V28.5488H123.552V38.4658Z" fill="url(#paint4_linear_5_469)"/>
<path d="M78.0732 39.4551L70.4933 28.5488H68.2021L68.21 28.9867L76.3012 40.8629L76.27 52H78.6548V40.2724L78.6431 40.2568L86.8241 28.5488H85.6844L78.0732 39.4551Z" fill="url(#paint5_linear_5_469)"/>
<path d="M133.471 28H131.458L130.946 33.6707H132.248L133.471 28Z" fill="url(#paint6_linear_5_469)"/>
</g>
<defs>
<linearGradient id="paint0_linear_5_469" x1="31.1282" y1="38.2269" x2="51.6228" y2="106.311" gradientUnits="userSpaceOnUse">
<stop stop-color="#B68472"/>
<stop offset="0.51" stop-color="#9D5B48"/>
<stop offset="1" stop-color="#5B3427"/>
</linearGradient>
<linearGradient id="paint1_linear_5_469" x1="134.004" y1="7.32214" x2="154.454" y2="75.4394" gradientUnits="userSpaceOnUse">
<stop stop-color="#B68472"/>
<stop offset="0.51" stop-color="#9D5B48"/>
<stop offset="1" stop-color="#5B3427"/>
</linearGradient>
<linearGradient id="paint2_linear_5_469" x1="52.2417" y1="31.8796" x2="72.6513" y2="99.8613" gradientUnits="userSpaceOnUse">
<stop stop-color="#B68472"/>
<stop offset="0.51" stop-color="#9D5B48"/>
<stop offset="1" stop-color="#5B3427"/>
</linearGradient>
<linearGradient id="paint3_linear_5_469" x1="94.7037" y1="19.144" x2="115.166" y2="87.2075" gradientUnits="userSpaceOnUse">
<stop stop-color="#B68472"/>
<stop offset="0.51" stop-color="#9D5B48"/>
<stop offset="1" stop-color="#5B3427"/>
</linearGradient>
<linearGradient id="paint4_linear_5_469" x1="110.08" y1="14.5179" x2="130.54" y2="82.5832" gradientUnits="userSpaceOnUse">
<stop stop-color="#B68472"/>
<stop offset="0.51" stop-color="#9D5B48"/>
<stop offset="1" stop-color="#5B3427"/>
</linearGradient>
<linearGradient id="paint5_linear_5_469" x1="76.2895" y1="24.6617" x2="96.7265" y2="92.7458" gradientUnits="userSpaceOnUse">
<stop stop-color="#B68472"/>
<stop offset="0.51" stop-color="#9D5B48"/>
<stop offset="1" stop-color="#5B3427"/>
</linearGradient>
<linearGradient id="paint6_linear_5_469" x1="125.909" y1="9.78243" x2="146.356" y2="77.9201" gradientUnits="userSpaceOnUse">
<stop stop-color="#B68472"/>
<stop offset="0.51" stop-color="#9D5B48"/>
<stop offset="1" stop-color="#5B3427"/>
</linearGradient>
<clipPath id="clip0_5_469">
<rect width="126.256" height="24" fill="white" transform="translate(24.8115 28)"/>
</clipPath>
</defs>
</svg>
