<svg width="175" height="80" viewBox="0 0 175 80" fill="none" xmlns="http://www.w3.org/2000/svg">
<g clip-path="url(#clip0_5_474)">
<path d="M119.057 63.3143L121.745 60.5629V31.5109L119.057 28.7594H138.845V33.0292L135.161 31.3375H125.544V43.638H133.319L136.065 42.3818V47.4762L133.319 46.2161H125.544V60.7402H136.007L139.691 59.0523V63.3182H119.061L119.057 63.3143Z" fill="#263A5B"/>
<path d="M34.7344 63.3142L37.4222 60.5628V31.5108L34.7344 28.7593H54.5219V33.0291L50.8382 31.3373H41.2213V43.6379H48.9963L51.7418 42.3817V47.4761L48.9963 46.216H41.2213V60.74H51.6841L55.3678 59.0522V63.3181H34.7344V63.3142Z" fill="#263A5B"/>
<path d="M79.5543 46.8788L72.5444 41.7882C70.0335 39.9732 68.7492 37.6341 68.7492 35.8769C68.7492 32.2468 71.8446 30.9597 73.7134 30.9597C74.2825 30.9597 74.7554 31.0946 75.1554 31.2102L77.4663 32.2506L79.8465 33.3335L82.1806 29.846L75.3476 28.5589C74.8823 28.4433 74.5901 28.3817 73.7134 28.3817C67.6995 28.3817 64.954 33.5339 64.954 36.8672C64.954 39.4992 66.296 42.4857 69.3914 44.767L76.4589 49.8576C78.3853 51.2025 78.9121 53.1948 78.9121 54.8903C78.9121 57.8152 77.101 60.979 73.1904 60.979C72.2561 60.979 71.437 60.8017 70.7949 60.5127L66.4805 58.5358L64.5464 62.0349L71.1448 63.3219C71.1448 63.3219 72.2561 63.557 73.1904 63.557C77.3356 63.557 82.7689 60.0464 82.7689 53.4915C82.7689 50.0965 81.1924 47.9886 79.5581 46.8788H79.5543Z" fill="#263A5B"/>
<path d="M106.753 46.8788L99.7428 41.7882C97.2319 39.9732 95.9476 37.6341 95.9476 35.8769C95.9476 32.2468 99.043 30.9597 100.912 30.9597C101.481 30.9597 101.954 31.0946 102.354 31.2102L104.665 32.2506L107.045 33.3335L109.379 29.846L102.546 28.5589C102.081 28.4433 101.788 28.3817 100.912 28.3817C94.8978 28.3817 92.1523 33.5339 92.1523 36.8672C92.1523 39.4992 93.4943 42.4857 96.5897 44.767L103.657 49.8576C105.584 51.2025 106.11 53.1948 106.11 54.8903C106.11 57.8152 104.299 60.979 100.389 60.979C99.4544 60.979 98.6354 60.8017 97.9932 60.5127L93.6789 58.5358L91.7448 62.0349L98.3432 63.3219C98.3432 63.3219 99.4544 63.557 100.389 63.557C104.534 63.557 109.967 60.0464 109.967 53.4915C109.967 50.0965 108.391 47.9886 106.756 46.8788H106.753Z" fill="#263A5B"/>
<path d="M77.9922 16.8169H74.4623V16.4508C74.6469 16.3853 74.8314 16.3236 75.0198 16.2735C75.2083 16.2235 75.4121 16.1811 75.6274 16.1464V8.65505H73.7048L73.0396 10.4547H72.7242C72.6973 10.2851 72.6781 10.0963 72.6627 9.88049C72.6473 9.66469 72.632 9.44889 72.6204 9.22538C72.6089 9.00187 72.5974 8.78607 72.5897 8.57027C72.582 8.35448 72.5781 8.16565 72.5781 7.99609H79.8802C79.8802 8.16565 79.8764 8.35448 79.8687 8.56257C79.861 8.77066 79.8494 8.99031 79.8379 9.20997C79.8264 9.43347 79.811 9.64927 79.7995 9.86507C79.7879 10.0809 79.7687 10.2736 79.7418 10.4508H79.4111L78.7497 8.6512H76.8386V16.1464C77.0578 16.1888 77.2578 16.2312 77.4462 16.2735C77.6346 16.3159 77.8153 16.3737 77.9922 16.4508V16.8169Z" fill="#BC955C"/>
<path d="M86.1696 16.8169H82.9896V16.4508C83.3242 16.3159 83.6664 16.2157 84.0201 16.1502V8.67817C83.6279 8.62037 83.2819 8.51632 82.9896 8.36218V7.99609H86.1696V8.36218C86.0273 8.43925 85.8774 8.50091 85.7159 8.55101C85.5582 8.6011 85.3929 8.64349 85.2275 8.67817V11.9653H89.1727V8.67817C88.9959 8.63579 88.8305 8.58954 88.6767 8.53945C88.5229 8.48935 88.3729 8.43155 88.2307 8.36218V7.99609H91.4107V8.36218C91.2607 8.44696 91.0954 8.51247 90.9146 8.55871C90.7339 8.60496 90.557 8.64349 90.3801 8.67817V16.1464C90.5724 16.1811 90.757 16.2235 90.9339 16.2735C91.1107 16.3236 91.2684 16.3814 91.4107 16.4508V16.8169H88.2307V16.4508C88.5306 16.3159 88.8459 16.2157 89.1727 16.1502V12.6242H85.2275V16.1502C85.3967 16.1849 85.5582 16.2273 85.7159 16.2774C85.8735 16.3275 86.0273 16.3853 86.1696 16.4547V16.8208V16.8169Z" fill="#BC955C"/>
<path d="M100.61 8C100.602 8.33526 100.587 8.67437 100.567 9.01349C100.548 9.3526 100.513 9.69557 100.475 10.0385H100.148L99.6329 8.65511H96.8951V11.9923H98.9446L99.4329 11.0597H99.7482C99.7982 11.8921 99.7982 12.7399 99.7482 13.6031H99.4329L98.9446 12.6474H96.8951V16.1618H99.7867L100.402 14.6513H100.717C100.775 15.0019 100.817 15.3603 100.844 15.7225C100.871 16.0848 100.875 16.447 100.856 16.817H94.661V16.4509C94.9532 16.316 95.2993 16.2158 95.6915 16.1503V8.67823C95.5223 8.64355 95.3532 8.60116 95.1763 8.54721C94.9994 8.49326 94.8302 8.4316 94.661 8.36609V8H100.617H100.61Z" fill="#BC955C"/>
<path d="M24 21.3256H150.769V19.8073L87.3846 20.7322L24 19.6532V21.3256Z" fill="#BC955C"/>
<path d="M150.769 70.6243H24V72.1464L87.3846 71.2216L150.769 72.3006V70.6243Z" fill="#BC955C"/>
</g>
<defs>
<clipPath id="clip0_5_474">
<rect width="126.769" height="64" fill="white" transform="translate(24 8)"/>
</clipPath>
</defs>
</svg>
