<svg width="173" height="80" viewBox="0 0 173 80" fill="none" xmlns="http://www.w3.org/2000/svg">
<path d="M60.744 38.5116H49.2598V28H47V51H49.2598V39.6832H60.744V51H63V28H60.744V38.5116Z" fill="white"/>
<path d="M32.4609 38.6722C30.573 37.7319 27.93 36.8998 26.8866 34.8693C26.0137 33.1676 26.6633 31.0165 28.1452 29.9139C29.8909 28.6158 32.1401 29.0776 33.76 30.3383C34.4259 30.8584 35.0551 31.4284 35.6357 32.0484C36.0214 32.4561 36.3746 32.8805 36.7806 33.2675L37.893 30.7211C37.893 30.6961 37.0323 30.0596 36.9349 29.9971C35.1688 28.8737 33.0008 28 30.8978 28C26.9719 28 24.1462 30.538 24.1462 33.9082C24.1462 36.9622 26.5496 39.1008 29.0465 40.3157C31.4662 41.4932 35.2094 42.213 35.6032 45.3502C35.9808 48.3792 33.8453 51.0878 30.9709 50.8714C28.9287 50.7175 27.187 48.9658 25.1124 46.7981L24 49.3444L24.3207 49.6066C25.7904 50.5469 27.796 52.0447 30.8653 51.999C33.9996 51.9532 37.211 49.9644 37.8687 46.6774C38.6766 42.6207 35.6195 40.245 32.4649 38.6805L32.4609 38.6722Z" fill="white"/>
<path d="M80.7875 28H80.287L71 51H72.27L75.9268 42.0782H84.0927L87.6545 51H90L80.7875 28ZM76.3984 40.901L80.0057 31.8219L83.6294 40.901H76.3984Z" fill="white"/>
<path d="M120.778 28L114.652 48.3876L108.477 28H106.081L107.419 32.4629L102.938 48.3876L96.3962 28H94L101.32 51H103.717L103.549 50.4638L108.058 34.5432L113.038 51H115.43L115.267 50.4638L122 28H120.778Z" fill="white"/>
<path d="M148 28H146.803V46.9753L131.692 28.0121H129V28.4552L130.099 29.821V51H131.283V31.36L147.284 51H148V28Z" fill="white"/>
</svg>
