<svg width="132" height="81" viewBox="0 0 132 81" fill="none" xmlns="http://www.w3.org/2000/svg">
<g clip-path="url(#clip0_1374_14614)">
<path fill-rule="evenodd" clip-rule="evenodd" d="M31.9003 38.1601L31.9004 38.1602L31.9005 38.1602C32.3036 38.3381 32.6954 38.5111 33.0598 38.6878H33.0641C36.297 40.2565 39.4277 42.6308 38.5971 46.689C37.9284 49.9755 34.6401 51.962 31.4285 52.0088C28.5486 52.0519 26.5793 50.7962 25.1127 49.8611L25.1126 49.8611C24.9806 49.7769 24.8526 49.6953 24.7284 49.6174L24.4004 49.3574L25.5377 46.8126C27.6589 48.9823 29.4436 50.7343 31.535 50.8877C34.4782 51.1009 36.6676 48.394 36.28 45.3632C35.9628 42.8778 33.4911 41.9092 31.245 41.0291C30.6559 40.7982 30.0822 40.5734 29.5671 40.329C27.0114 39.1141 24.5495 36.9742 24.5495 33.9221C24.5495 30.5545 27.4416 28.0139 31.4625 28.0139C33.6178 28.0139 35.837 28.8878 37.6472 30.0089C37.7452 30.0686 38.6269 30.7122 38.6269 30.7335L37.4896 33.2784C37.2022 33.0113 36.939 32.728 36.675 32.4438L36.6749 32.4438C36.5556 32.3153 36.436 32.1867 36.314 32.0592C35.7177 31.4412 35.0745 30.8699 34.393 30.3499C32.7361 29.0924 30.4318 28.6277 28.6428 29.9279C27.1222 31.0319 26.4577 33.1846 27.3522 34.8854C28.2198 36.5355 30.1646 37.394 31.9003 38.1601ZM78.0264 28.0139H75.8242V51.7829H78.0264V28.0139ZM106.33 28.0309V47.6267L91.5753 28.0437H88.9473V28.4998L90.0206 29.9108V51.7829H91.1792V31.5008L106.799 51.7829H107.497L107.489 28.0309H106.33ZM65.8319 34.2631C65.7298 38.3043 61.8021 40.4992 58.5074 41.1879L66.6285 51.7787H63.8683L55.8734 41.3435H53.4838V51.7616H51.2774V28.0224H56.6145C60.2734 28.0224 62.8972 28.811 64.4093 30.3627C65.3932 31.3687 65.8703 32.6816 65.8319 34.2631ZM53.4838 28.7855H56.6145C60.8867 28.7855 63.4381 30.8998 63.4381 34.4464C63.4381 35.0176 63.3657 35.5931 63.2124 36.1429C63.0676 36.6587 62.8503 37.1532 62.565 37.6051C62.2838 38.0441 61.9388 38.4406 61.5427 38.7773C61.138 39.1226 60.678 39.4039 60.1925 39.6213C59.6728 39.8515 59.1233 40.005 58.5611 40.086C57.965 40.1753 57.363 40.1718 56.7626 40.1683H56.7624C56.6463 40.1676 56.5303 40.167 56.4143 40.167H53.8501H53.4838V28.7855ZM47.6439 28.0309H44.7858L41.4336 34.2631H43.2779L47.6439 28.4871V28.0309Z" fill="white"/>
</g>
<defs>
<clipPath id="clip0_1374_14614">
<rect width="83.0909" height="24" fill="white" transform="translate(24.4004 28.0139)"/>
</clipPath>
</defs>
</svg>
