<svg width="233" height="81" viewBox="0 0 233 81" fill="none" xmlns="http://www.w3.org/2000/svg">
<g clip-path="url(#clip0_1374_14691)">
<path d="M102.897 16.5478H104.758V9.74417H107.335V8.01392H100.32V9.74417H102.897V16.5478Z" fill="white"/>
<path d="M113.767 13.1221H117.202V16.5478H119.065V8.01392H117.202V11.3918H113.767V8.01392H111.904V16.5478H113.767V13.1221Z" fill="white"/>
<path d="M130.69 14.8784H126.092V13.0851H130.084V11.4157H126.092V9.68331H130.629V8.01392H124.242V16.5478H130.69V14.8784Z" fill="white"/>
<path d="M28.8072 72.014H202.916L203.608 70.8054H28.1172L28.8072 72.014Z" fill="white"/>
<path d="M24.8828 64.0126V53.205C24.8828 51.2683 25.0726 49.7271 25.4521 48.5772C25.8316 47.4295 26.3125 46.6296 26.8925 46.1797V45.5036C26.3103 45.008 25.8316 44.119 25.4521 42.8365C25.0726 41.554 24.8828 39.8759 24.8828 37.8044V28.8879H54.4332V32.1311L30.3103 31.9963V44.1538H51.686V47.4643H30.3103V60.4999L55.4381 60.5673L54.9011 64.0126H24.8828Z" fill="white"/>
<path d="M98.7107 28.8879H133.279L132.736 32.0615H118.068V64.0104H113.044V32.0637H98.2363L98.7129 28.8901L98.7107 28.8879Z" fill="white"/>
<path d="M190.251 64.2822C188.151 64.2822 186.264 64.0235 184.589 63.5062C182.913 62.9888 181.227 61.8976 179.53 60.2304L178.926 59.5544C177.496 59.1936 176.235 58.3284 175.14 56.9547C174.044 55.5809 173.197 53.9485 172.593 52.0573C171.989 50.1662 171.689 48.2969 171.689 46.4514C171.689 43.706 172.371 41.0367 173.734 38.4479C175.096 35.859 176.826 34.1592 178.926 33.3484L179.53 32.6724C181.227 31.0508 182.924 29.9705 184.623 29.4314C186.32 28.8901 188.196 28.6206 190.251 28.6206C192.306 28.6206 194.115 28.8901 195.812 29.4314C197.509 29.9726 199.206 31.053 200.906 32.6724L201.576 33.3484C203.006 33.9331 204.267 34.9591 205.363 36.422C206.456 37.8849 207.306 39.5195 207.909 41.3193C208.513 43.1213 208.837 44.832 208.882 46.4536C208.925 48.2099 208.636 50.0336 208.011 51.9248C207.385 53.8159 206.503 55.4613 205.365 56.8547C204.226 58.2502 202.963 59.1501 201.578 59.5566L200.975 60.2326C199.275 61.8542 197.568 62.9345 195.849 63.4757C194.128 64.017 192.265 64.2865 190.253 64.2865L190.251 64.2822ZM190.251 61.1086C193.289 61.1086 195.746 60.5347 197.622 59.387C199.498 58.2393 200.86 56.583 201.708 54.4223C202.555 52.2617 202.958 49.6054 202.913 46.4514C202.868 43.3887 202.467 40.7781 201.708 38.6152C200.947 36.4546 199.631 34.7765 197.755 33.5831C195.879 32.3898 193.376 31.7942 190.251 31.7942C187.392 31.7942 185.024 32.4028 183.148 33.6179C181.272 34.833 179.888 36.5328 178.993 38.7174C178.098 40.902 177.652 43.48 177.652 46.4514C177.652 51.2705 178.624 54.9288 180.567 57.4285C182.51 59.9283 185.738 61.1542 190.249 61.1108L190.251 61.1086Z" fill="white"/>
<path d="M65.8918 28.8879L72.1905 35.4394C73.8875 37.1957 75.1058 38.6934 75.8433 39.9302C76.5808 41.1693 76.9495 42.3278 76.9495 43.4082H77.4864L81.6417 38.6804L90.0837 28.8857H95.3775L80.3004 46.447L97.1867 64.0082H90.5538L82.3792 55.7004C80.7252 54.0353 79.5759 52.7398 78.929 51.816C78.28 50.8943 77.9565 50.0031 77.9565 49.1489H77.3527L64.488 64.0082H59.4638L74.942 46.2426L59.0605 28.8835H65.8961L65.8918 28.8879Z" fill="white"/>
<path d="M137.586 52.7311C137.586 50.7509 137.687 49.4336 137.888 48.7794C138.088 48.1273 138.479 47.5751 139.061 47.1252V46.4492C138.481 45.9536 138.088 45.3471 137.888 44.6254C137.687 43.9059 137.586 42.4865 137.586 40.3694V28.8857H156.215C158.85 28.8857 161.073 29.3487 162.882 30.2704C164.691 31.1942 166.03 32.3636 166.903 33.7831C167.775 35.2025 168.21 36.698 168.21 38.2739C168.21 40.165 167.662 41.9105 166.569 43.5082C165.474 45.108 163.296 46.1535 160.036 46.6492V47.5273C161.375 47.7077 162.537 48.3946 163.52 49.588C164.501 50.7813 165.418 52.392 166.267 54.4179C166.759 55.633 167.585 57.4133 168.747 59.7543C169.909 62.0063 170.778 63.4257 171.361 64.0104H165.799C165.575 63.7865 165.329 63.4692 165.062 63.0649C164.795 62.6606 164.525 62.1867 164.258 61.6454C163.766 60.6999 162.828 58.6066 161.444 55.3635C160.506 53.1572 159.399 51.4682 158.127 50.2966C156.855 49.125 155.415 48.5403 153.806 48.5403H142.617V64.0083H137.59V52.729L137.586 52.7311ZM142.612 31.792V45.7732H154.205C157.465 45.7732 159.71 45.1645 160.939 43.9494C162.168 42.7343 162.783 41.0236 162.783 38.8152C162.783 36.7436 162.134 35.0569 160.84 33.7505C159.544 32.4441 157.914 31.792 155.949 31.792H142.615H142.612Z" fill="white"/>
</g>
<defs>
<clipPath id="clip0_1374_14691">
<rect width="184" height="64" fill="white" transform="translate(24.8828 8.01392)"/>
</clipPath>
</defs>
</svg>
