<svg width="175" height="81" viewBox="0 0 175 81" fill="none" xmlns="http://www.w3.org/2000/svg">
<g clip-path="url(#clip0_1374_14612)">
<path d="M61.4017 29.0525V28.3972H47.3945V51.6874H61.4017V51.03H50.5695V39.6801H58.7743V39.0248H50.5695V29.0525H61.4017Z" fill="white"/>
<path d="M84.1639 28.3972V46.9792L71.0246 28.3972H67.8496V51.6874H71.0246V33.1033L84.1639 51.6874H87.3389V28.3972H84.1639Z" fill="white"/>
<path d="M92.4727 28.3972V29.0525H98.5456V51.6874H101.721V29.0525H107.794V28.3972H92.4727Z" fill="white"/>
<path d="M129.66 35.7115C129.66 31.185 126.476 28.3972 122.931 28.3972H112.93V51.6874H116.105V43.0279H120.448L126.357 51.6874H129.662L123.721 42.9955C126.939 42.6019 129.662 39.9115 129.662 35.7137L129.66 35.7115ZM116.103 42.3705V29.0525H120.414C123.565 29.0525 126.487 31.5137 126.487 35.7115C126.487 39.9093 123.565 42.3705 120.414 42.3705H116.103Z" fill="white"/>
<path d="M150.113 29.0525V28.3972H136.105V51.6874H150.113V51.03H139.28V39.6801H147.487V39.0248H139.28V29.0525H150.113Z" fill="white"/>
<path d="M34.2836 39.2864C31.4267 38.0083 28.637 36.9248 28.637 33.3498C28.637 31.4423 29.8511 29.9457 31.6259 29.219C32.3812 28.9098 33.2577 28.9163 33.9892 29.2774C35.5237 30.0344 36.5626 31.505 36.7877 33.153H39.9627C39.6358 30.4172 37.3352 28.1074 34.2187 28.075H31.5263C28.1652 28.1247 25.4642 30.3004 25.4642 33.3498C25.4642 37.4179 28.6824 38.6311 31.7016 39.9763C34.7879 41.354 37.7746 43.0604 37.7746 46.538C37.7746 48.6294 36.5323 50.2189 34.4632 50.937C33.6213 51.2289 32.682 51.2354 31.8423 50.9305C29.9442 50.2406 28.3773 48.6964 28.1435 46.2114H24.9707C25.2997 50.1151 28.6132 52.0183 31.7644 52.0183H34.2814C38.2853 52.0183 40.9452 49.7886 40.9452 46.5402C40.9452 42.7014 37.794 40.8652 34.2814 39.2908L34.2836 39.2864Z" fill="white"/>
</g>
<defs>
<clipPath id="clip0_1374_14612">
<rect width="125.143" height="24" fill="white" transform="translate(24.9707 28.0139)"/>
</clipPath>
</defs>
</svg>
