<svg width="65" height="135" viewBox="0 0 65 135" fill="none" xmlns="http://www.w3.org/2000/svg">
<path d="M51.2215 69.37H45.0515L24.3615 105.21C22.5315 108.41 21.1215 111.92 21.5215 113.88C18.6415 109.17 22.0115 104.52 23.3515 102.21L42.3115 69.38H36.1415L20.5315 96.42C18.7015 99.62 17.2915 103.13 17.6915 105.09C14.8115 100.38 18.1815 95.73 19.5215 93.42L33.3915 69.39H27.2215L16.6915 87.62C14.8615 90.82 13.4515 94.33 13.8515 96.29C10.9715 91.58 14.3415 86.93 15.6815 84.62L24.4715 69.4H18.3015L12.8615 78.83C11.0315 82.03 9.62151 85.54 10.0215 87.5C7.14151 82.79 10.5115 78.14 11.8515 75.83L15.5615 69.41H8.83151C2.56151 69.37 0.00151306 66.1 0.00151306 62.59C0.00151306 62.59 -0.128487 60.27 2.02151 56.51L29.6515 8.67C29.6515 8.67 33.4515 2.09 34.1015 0C35.8415 3.7 33.1415 8.58 32.5115 9.68C32.3315 9.98 5.47151 56.51 5.47151 56.51C4.11151 58.89 3.35151 60.58 3.29151 61.91C3.16151 64.65 5.91151 65.12 8.36151 65.18L34.5315 19.85C34.5315 19.85 38.3315 13.27 38.9815 11.18C40.6515 14.74 37.9515 19.9 37.3915 20.86C37.2415 21.12 17.4015 55.49 11.8015 65.18H17.9715L38.6615 29.34C38.6615 29.34 42.4615 22.76 43.1115 20.67C44.7815 24.23 41.7815 28.71 41.2215 29.66C41.1015 29.87 28.6815 51.38 20.7215 65.17H26.8915L42.5015 38.13C42.5015 38.13 46.3015 31.55 46.9515 29.46C48.5215 32.81 45.5015 37.7 45.0615 38.45C44.9615 38.62 36.9315 52.54 29.6415 65.16H35.8115L46.3415 46.93C46.3415 46.93 50.1415 40.35 50.7915 38.26C52.3615 41.61 49.3415 46.5 48.9015 47.25C48.8315 47.38 44.0715 55.62 38.5615 65.15H44.7315L50.1715 55.72C50.1715 55.72 53.9715 49.14 54.6215 47.05C56.1915 50.4 53.1715 55.29 52.7315 56.04L47.4815 65.14H55.8215C59.3115 65.14 61.6415 66.16 63.0315 67.67V67.69C63.7815 68.66 64.8315 71.38 61.2615 77.56L54.5415 89.21L33.3815 125.85C31.5515 129.05 30.1415 132.56 30.5415 134.52C27.6615 129.81 30.7315 124.48 32.0715 122.16C32.3615 121.65 32.5615 121.31 32.6915 121.08L57.5615 78.01C58.9215 75.63 59.6815 73.94 59.7415 72.61C59.7615 72.16 59.7015 71.77 59.5815 71.43C58.9715 69.72 56.7215 69.39 54.6715 69.34L49.6615 78.02L28.5015 114.66C26.6715 117.86 25.2615 121.37 25.6615 123.33C22.7815 118.62 25.8515 113.29 27.1915 110.97L51.2315 69.33L51.2215 69.37Z" fill="#CBA449"/>
<path d="M4.48206 64.34C3.61206 62.23 6.46206 57.59 7.83206 55.21L32.1021 13.17C32.2221 12.96 32.3721 12.7 32.5721 12.36C33.9121 10.04 36.9821 4.72 34.1021 0C35.8421 3.7 33.1421 8.58 32.5121 9.68C32.3321 9.98 5.47206 56.51 5.47206 56.51C4.11206 58.89 3.35206 60.58 3.29206 61.91C3.23206 63.1 3.72206 63.86 4.48206 64.34Z" fill="#646363"/>
<path d="M20.7227 65.1799H22.3327L41.2927 32.3499C42.6327 30.0299 46.0027 25.3899 43.1227 20.6799C44.7927 24.2399 41.7927 28.7199 41.2327 29.6699L20.7327 65.1799H20.7227Z" fill="#646363"/>
<path d="M29.6426 65.18H31.2526L45.1226 41.15C46.4626 38.83 49.8326 34.19 46.9526 29.48C48.5226 32.83 45.5026 37.72 45.0626 38.47L29.6426 65.18Z" fill="#646363"/>
<path d="M38.5625 65.18H40.1725L48.9625 49.96C50.3025 47.64 53.6725 43 50.7925 38.29C52.3625 41.64 49.3425 46.53 48.9025 47.28L38.5625 65.18Z" fill="#646363"/>
<path d="M47.4727 65.18H49.0827L52.7927 58.76C54.1327 56.44 57.5027 51.8 54.6227 47.09C56.1927 50.44 53.1727 55.33 52.7327 56.08L47.4827 65.18H47.4727Z" fill="#646363"/>
<path d="M11.8027 65.1799H13.4127L37.4527 23.5399C38.7927 21.2199 41.8627 15.8999 38.9827 11.1799C40.6527 14.7399 37.9527 19.8999 37.3927 20.8599C37.2427 21.1199 17.4027 55.4899 11.8027 65.1799Z" fill="#646363"/>
<path d="M64.6212 71.96C64.6212 70.42 64.1212 68.92 63.0412 67.72C63.7812 68.69 64.8112 71.41 61.2512 77.58L54.5312 89.23L33.3712 125.87C31.5412 129.07 30.1312 132.58 30.5312 134.54C31.1812 132.46 34.9812 125.87 34.9812 125.87L62.6012 78.03C64.7512 74.28 64.6212 71.95 64.6212 71.95V71.96Z" fill="#646363"/>
<path d="M46.1217 70.3H50.6817L51.2117 69.38H45.0417L44.5117 70.3L24.3517 105.22C22.5217 108.42 21.1117 111.93 21.5117 113.89C22.1617 111.81 25.9617 105.22 25.9617 105.22L46.1217 70.3Z" fill="#646363"/>
<path d="M37.2116 70.3H41.7716L42.3016 69.38H36.1316L35.6016 70.3L20.5216 96.41C18.6916 99.61 17.2816 103.12 17.6816 105.08C18.3316 103 22.1316 96.41 22.1316 96.41L37.2116 70.3Z" fill="#646363"/>
<path d="M28.2915 70.3H32.8515L33.3815 69.38H27.2115L26.6815 70.3L16.6915 87.61C14.8615 90.81 13.4515 94.32 13.8515 96.28C14.5015 94.2 18.3015 87.61 18.3015 87.61L28.2915 70.3Z" fill="#646363"/>
<path d="M19.3717 70.3H23.9317L24.4617 69.38H18.2917L17.7617 70.3L12.8517 78.81C11.0217 82.01 9.61166 85.52 10.0117 87.48C10.6617 85.4 14.4617 78.81 14.4617 78.81L19.3717 70.3Z" fill="#646363"/>
<path d="M2.17188 67.39C3.59187 68.59 5.76188 69.37 8.81188 69.37H15.5419L15.0119 70.29H11.1419C4.43188 70.29 2.17188 67.39 2.17188 67.39Z" fill="#646363"/>
<path d="M55.7521 70.3C57.3621 70.34 58.8121 70.55 59.5821 71.47C58.9721 69.76 56.7221 69.43 54.6721 69.38L49.6621 78.06L28.5021 114.7C26.6721 117.9 25.2621 121.41 25.6621 123.37C26.3121 121.29 30.1121 114.7 30.1121 114.7L55.7521 70.29H55.7621L55.7521 70.3Z" fill="#646363"/>
</svg>
