<svg width="342" height="135" viewBox="0 0 342 135" fill="none" xmlns="http://www.w3.org/2000/svg">
<g clip-path="url(#clip0_390_1896)">
<path d="M84.1599 89.82C82.0599 89.82 80.1298 89.49 77.3398 88.75L78.0098 85.82C80.1398 86.32 82.0698 86.62 83.6298 86.62C85.8298 86.62 88.3898 85.69 88.3898 83.39C88.3898 81.93 87.7898 81.26 85.4598 80.53C81.3698 79.26 77.5698 78.5 77.5698 73.54C77.5698 69.51 80.4698 67.05 85.0898 67.05C86.9198 67.05 88.8498 67.35 91.7098 68.05L91.6398 68.36C91.3298 69.75 90.0098 70.69 88.5898 70.49C87.5998 70.35 86.5498 70.24 85.7798 70.24C83.8198 70.24 81.7898 71.04 81.7898 73.23C81.7898 74.89 82.5598 75.46 85.5198 76.19C90.0498 77.32 92.6098 78.45 92.6098 82.71C92.6098 86.97 89.4499 89.8 84.1599 89.8V89.82Z" fill="white"/>
<path d="M100.16 89.52V70.07C100.16 68.55 101.39 67.33 102.9 67.33H104.38V89.53H100.15L100.16 89.52Z" fill="white"/>
<path d="M124.85 89.52L116.43 71.52L116.6 89.52H113.07V67.32H118.66L127.08 85.46L126.94 70.09C126.93 68.56 128.16 67.32 129.68 67.32H130.44V89.52H124.85Z" fill="white"/>
<path d="M175.569 89.52V79.4H166.849V89.52H162.619V67.32H166.849V76.4H175.569V70.06C175.569 68.54 176.799 67.32 178.309 67.32H179.789V89.52H175.569Z" fill="white"/>
<path d="M201.19 87.66L200.02 84.23H191.34L189.58 89.52H185.75L193.54 67.32H198.36L206.38 89.52H203.79C202.62 89.52 201.57 88.77 201.19 87.66ZM195.6 70.65L192.21 81.4H199.1L195.61 70.65H195.6Z" fill="white"/>
<path d="M251.189 89.82C249.089 89.82 247.159 89.49 244.369 88.75L245.029 85.82C247.159 86.32 249.089 86.62 250.649 86.62C252.849 86.62 255.409 85.69 255.409 83.39C255.409 81.93 254.809 81.26 252.479 80.53C248.389 79.26 244.589 78.5 244.589 73.54C244.589 69.51 247.489 67.05 252.109 67.05C253.939 67.05 255.869 67.35 258.729 68.05L258.659 68.36C258.349 69.75 257.029 70.69 255.609 70.49C254.619 70.35 253.569 70.24 252.799 70.24C250.839 70.24 248.809 71.04 248.809 73.23C248.809 74.89 249.579 75.46 252.539 76.19C257.069 77.32 259.629 78.45 259.629 82.71C259.629 86.97 256.469 89.8 251.179 89.8L251.189 89.82Z" fill="white"/>
<path d="M297.85 87.65L296.69 84.22H288L286.24 89.51H282.41L290.2 67.31H295.03L303.05 89.51H300.46C299.28 89.51 298.24 88.76 297.86 87.65H297.85ZM292.26 70.64L288.87 81.39H295.76L292.27 70.64H292.26Z" fill="white"/>
<path d="M155.051 78.15H146.271C146.271 78.15 146.681 81.19 149.571 81.19H151.031V86.12C150.201 86.39 148.831 86.65 147.301 86.65C145.471 86.65 144.271 86.09 143.411 84.85C142.411 83.49 141.911 81.26 141.911 78.43C141.911 72.91 143.771 70.24 147.731 70.24C149.191 70.24 150.961 70.44 153.751 71.04L154.381 68.18C151.291 67.32 148.991 66.98 147.191 66.98C141.071 66.98 137.471 71.07 137.471 78.46C137.471 85.85 140.831 89.91 146.621 89.91C148.951 89.91 151.331 89.38 155.021 87.95V78.15H155.051Z" fill="white"/>
<path d="M234.499 79.49C238.719 79.49 238.589 76.49 238.589 76.49H228.759V70.31H234.519C238.739 70.31 238.609 67.32 238.609 67.32H224.529V89.52C224.529 89.52 233.339 89.52 234.499 89.52C238.719 89.52 238.589 86.53 238.589 86.53H228.759V79.5H234.499V79.49Z" fill="white"/>
<path d="M337.691 79.49C341.911 79.49 341.771 76.49 341.771 76.49H331.941V70.31H337.711C341.931 70.31 341.801 67.32 341.801 67.32H327.721V89.52C327.721 89.52 336.531 89.52 337.691 89.52C341.911 89.52 341.771 86.53 341.771 86.53H331.941V79.5H337.681L337.691 79.49Z" fill="white"/>
<path d="M281.82 67.32H263.32V70.31H270.01V89.51H274.24V70.31H277.74C281.96 70.31 281.83 67.32 281.83 67.32H281.82Z" fill="white"/>
<path d="M322.77 67.32H304.27V70.31H310.96V89.51H315.19V70.31H318.69C322.91 70.31 322.78 67.32 322.78 67.32H322.77Z" fill="white"/>
<path d="M51.2196 69.37H45.0496L24.3596 105.21C22.5296 108.41 21.1196 111.92 21.5196 113.88C18.6396 109.17 22.0096 104.52 23.3496 102.21L42.3096 69.38H36.1396L20.5296 96.42C18.6996 99.62 17.2896 103.13 17.6896 105.09C14.8096 100.38 18.1796 95.73 19.5196 93.42L33.3896 69.39H27.2196L16.6896 87.62C14.8596 90.82 13.4496 94.33 13.8496 96.29C10.9696 91.58 14.3396 86.93 15.6796 84.62L24.4696 69.4H18.2996L12.8596 78.83C11.0296 82.03 9.61956 85.54 10.0196 87.5C7.13956 82.79 10.5096 78.14 11.8496 75.83L15.5596 69.41H8.82956C2.55956 69.37 -0.000440062 66.1 -0.000440062 62.59C-0.000440062 62.59 -0.13044 60.27 2.01956 56.51L29.6496 8.67C29.6496 8.67 33.4496 2.09 34.0996 0C35.8396 3.7 33.1396 8.58 32.5096 9.68C32.3296 9.98 5.46956 56.51 5.46956 56.51C4.10956 58.89 3.34956 60.58 3.28956 61.91C3.15956 64.65 5.90956 65.12 8.35956 65.18L34.5296 19.85C34.5296 19.85 38.3296 13.27 38.9796 11.18C40.6496 14.74 37.9496 19.9 37.3896 20.86C37.2396 21.12 17.3996 55.49 11.7996 65.18H17.9696L38.6596 29.34C38.6596 29.34 42.4596 22.76 43.1096 20.67C44.7796 24.23 41.7796 28.71 41.2196 29.66C41.0996 29.87 28.6796 51.38 20.7196 65.17H26.8896L42.4996 38.13C42.4996 38.13 46.2996 31.55 46.9496 29.46C48.5196 32.81 45.4996 37.7 45.0596 38.45C44.9596 38.62 36.9296 52.54 29.6396 65.16H35.8096L46.3396 46.93C46.3396 46.93 50.1396 40.35 50.7896 38.26C52.3596 41.61 49.3396 46.5 48.8996 47.25C48.8296 47.38 44.0696 55.62 38.5596 65.15H44.7296L50.1696 55.72C50.1696 55.72 53.9696 49.14 54.6196 47.05C56.1896 50.4 53.1696 55.29 52.7296 56.04L47.4796 65.14H55.8196C59.3096 65.14 61.6396 66.16 63.0296 67.67V67.69C63.7796 68.66 64.8296 71.38 61.2596 77.56L54.5396 89.21L33.3796 125.85C31.5496 129.05 30.1396 132.56 30.5396 134.52C27.6596 129.81 30.7296 124.48 32.0696 122.16C32.3596 121.65 32.5596 121.31 32.6896 121.08L57.5596 78.01C58.9196 75.63 59.6796 73.94 59.7396 72.61C59.7596 72.16 59.6996 71.77 59.5796 71.43C58.9696 69.72 56.7196 69.39 54.6696 69.34L49.6596 78.02L28.4996 114.66C26.6696 117.86 25.2596 121.37 25.6596 123.33C22.7796 118.62 25.8496 113.29 27.1896 110.97L51.2296 69.33L51.2196 69.37Z" fill="#CBA449"/>
<path d="M4.48011 64.34C3.61011 62.23 6.46011 57.59 7.83011 55.21L32.1001 13.17C32.2201 12.96 32.3701 12.7 32.5701 12.36C33.9101 10.04 36.9801 4.72 34.1001 0C35.8401 3.7 33.1401 8.58 32.5101 9.68C32.3301 9.98 5.47011 56.51 5.47011 56.51C4.11011 58.89 3.35011 60.58 3.29011 61.91C3.23011 63.1 3.72011 63.86 4.48011 64.34Z" fill="#646363"/>
<path d="M20.7207 65.18H22.3307L41.2907 32.35C42.6307 30.03 46.0007 25.39 43.1207 20.68C44.7907 24.24 41.7907 28.72 41.2307 29.67L20.7307 65.18H20.7207Z" fill="#646363"/>
<path d="M29.6406 65.18H31.2506L45.1206 41.15C46.4606 38.83 49.8306 34.19 46.9506 29.48C48.5206 32.83 45.5006 37.72 45.0606 38.47L29.6406 65.18Z" fill="#646363"/>
<path d="M38.5605 65.18H40.1705L48.9605 49.96C50.3005 47.64 53.6705 43 50.7905 38.29C52.3605 41.64 49.3405 46.53 48.9005 47.28L38.5605 65.18Z" fill="#646363"/>
<path d="M47.4707 65.18H49.0807L52.7907 58.76C54.1307 56.44 57.5007 51.8 54.6207 47.09C56.1907 50.44 53.1707 55.33 52.7307 56.08L47.4807 65.18H47.4707Z" fill="#646363"/>
<path d="M11.8008 65.18H13.4108L37.4508 23.54C38.7908 21.22 41.8608 15.9 38.9808 11.18C40.6508 14.74 37.9508 19.9 37.3908 20.86C37.2408 21.12 17.4008 55.49 11.8008 65.18Z" fill="#646363"/>
<path d="M64.6192 71.96C64.6192 70.42 64.1192 68.92 63.0392 67.72C63.7792 68.69 64.8092 71.41 61.2492 77.58L54.5292 89.23L33.3692 125.87C31.5392 129.07 30.1292 132.58 30.5292 134.54C31.1792 132.46 34.9792 125.87 34.9792 125.87L62.5992 78.03C64.7492 74.28 64.6192 71.95 64.6192 71.95V71.96Z" fill="#646363"/>
<path d="M46.1197 70.3H50.6797L51.2097 69.38H45.0397L44.5097 70.3L24.3497 105.22C22.5197 108.42 21.1097 111.93 21.5097 113.89C22.1597 111.81 25.9597 105.22 25.9597 105.22L46.1197 70.3Z" fill="#646363"/>
<path d="M37.2096 70.3H41.7696L42.2996 69.38H36.1296L35.5996 70.3L20.5196 96.41C18.6896 99.61 17.2796 103.12 17.6796 105.08C18.3296 103 22.1296 96.41 22.1296 96.41L37.2096 70.3Z" fill="#646363"/>
<path d="M28.2896 70.3H32.8496L33.3796 69.38H27.2096L26.6796 70.3L16.6896 87.61C14.8596 90.81 13.4496 94.32 13.8496 96.28C14.4996 94.2 18.2996 87.61 18.2996 87.61L28.2896 70.3Z" fill="#646363"/>
<path d="M19.3697 70.3H23.9297L24.4597 69.38H18.2897L17.7597 70.3L12.8497 78.81C11.0197 82.01 9.60971 85.52 10.0097 87.48C10.6597 85.4 14.4597 78.81 14.4597 78.81L19.3697 70.3Z" fill="#646363"/>
<path d="M2.16992 67.39C3.58992 68.59 5.75992 69.37 8.80992 69.37H15.5399L15.0099 70.29H11.1399C4.42992 70.29 2.16992 67.39 2.16992 67.39Z" fill="#646363"/>
<path d="M55.7501 70.3C57.3601 70.34 58.8101 70.55 59.5801 71.47C58.9701 69.76 56.7201 69.43 54.6701 69.38L49.6601 78.06L28.5001 114.7C26.6701 117.9 25.2601 121.41 25.6601 123.37C26.3101 121.29 30.1101 114.7 30.1101 114.7L55.7501 70.29H55.7601L55.7501 70.3Z" fill="#646363"/>
</g>
<defs>
<clipPath id="clip0_390_1896">
<rect width="341.8" height="134.55" fill="white"/>
</clipPath>
</defs>
</svg>
