<svg width="217" height="80" viewBox="0 0 217 80" fill="none" xmlns="http://www.w3.org/2000/svg">
<g clip-path="url(#clip0_5_470)">
<path d="M50.3008 28H48.0918V51.7981H50.3008V28Z" fill="#3A3936"/>
<path d="M136.479 28.0187H134.27V51.7981H136.479V28.0187Z" fill="#3A3936"/>
<path d="M32.7499 38.6867C30.8123 37.7458 28.1026 36.9126 27.0308 34.8764C26.1323 33.1725 26.8015 31.0192 28.3225 29.9145C30.115 28.6132 32.4223 29.0766 34.0837 30.3405C34.767 30.8601 35.4128 31.4312 36.0072 32.049C36.4003 32.4563 36.7653 32.8823 37.1819 33.2708L38.3191 30.7243C38.3191 30.7009 37.4393 30.0596 37.3363 29.9988C35.5251 28.8753 33.3021 28 31.1446 28C27.1151 28 24.2181 30.5418 24.2181 33.9121C24.2181 36.9688 26.6845 39.1126 29.2445 40.325C31.7296 41.5046 35.5672 42.2208 35.9697 45.3664C36.3582 48.3997 34.1679 51.1147 31.2148 50.8947C29.1181 50.7402 27.3304 48.9848 25.2056 46.8129L24.0684 49.364L24.396 49.6261C25.9029 50.567 27.9622 52.0649 31.1072 52.0181C34.3224 51.9713 37.6171 49.9819 38.291 46.6912C39.1194 42.6281 35.9838 40.2501 32.7499 38.682V38.6867Z" fill="#3A3936"/>
<path d="M192.397 28.0187H191.236V47.6367L176.456 28.0281H173.826V28.4868L174.898 29.9005V51.7981H176.059V31.492L191.704 51.7981H192.411L192.397 28.0187Z" fill="#3A3936"/>
<path d="M163.389 28.0187V47.6367L148.605 28.0281H145.975V28.4868L147.046 29.9005V51.7981H148.207V31.492L163.852 51.7981H164.559L164.545 28.0187H163.389Z" fill="#3A3936"/>
<path d="M123 28.0187V47.6367L108.216 28.0281H105.586V28.4868L106.658 29.9005V51.7981H107.818V31.492L123.464 51.7981H124.17L124.156 28.0187H123Z" fill="#3A3936"/>
<path d="M90.4042 28.0328H89.8988L84.6525 41.4812L83.9458 43.3068C82.8881 46.0358 81.7929 48.8585 80.7119 51.4236L80.5527 51.8028H81.8351L81.9053 51.6296C83.4263 47.838 84.2593 45.886 84.835 44.3554L85.5229 42.5813H93.7458L97.3307 51.8028H99.6895L90.4744 28.206L90.4042 28.0328ZM85.9816 41.3642L89.6133 31.9835L93.2591 41.3642H85.9769H85.9816Z" fill="#3A3936"/>
<path d="M67.8826 41.191C71.1821 40.5029 75.1273 38.3075 75.2303 34.2538C75.2724 32.6716 74.7904 31.3562 73.8076 30.3451C72.2865 28.7957 69.661 28.0093 65.9919 28.0093H60.6426V51.7794H62.8516V41.3501H65.2431L73.2506 51.7981H76.0165L67.8779 41.191H67.8826ZM62.8516 28.7723H65.9919C70.2694 28.7723 72.8248 30.8928 72.8248 34.441C72.8248 35.0121 72.7545 35.5878 72.6001 36.1402C72.455 36.6551 72.2397 37.1513 71.9496 37.6054C71.6688 38.0454 71.3225 38.4432 70.9247 38.7803C70.5175 39.1267 70.0588 39.4075 69.5721 39.6229C69.0526 39.8522 68.5004 40.0067 67.9388 40.091C67.2274 40.1986 66.5067 40.1705 65.786 40.1705C64.9295 40.1705 64.0731 40.1705 63.2166 40.1705C63.0949 40.1705 62.9732 40.1705 62.8516 40.1705V28.7723Z" fill="#3A3936"/>
</g>
<defs>
<clipPath id="clip0_5_470">
<rect width="168.341" height="24" fill="white" transform="translate(24.0684 28)"/>
</clipPath>
</defs>
</svg>
