<svg width="253" height="81" viewBox="0 0 253 81" fill="none" xmlns="http://www.w3.org/2000/svg">
<g clip-path="url(#clip0_1374_14609)">
<path d="M189.332 29.9964H187.286C187.13 29.9964 186.547 29.9912 185.979 29.9392C185.623 29.9105 185.344 29.8793 185.185 29.8611C185.112 29.8663 185.05 29.8819 184.982 29.9209L184.748 30.2333C185.615 30.3999 185.841 31.0506 185.925 31.2406C185.995 31.402 185.997 32.2453 185.995 32.6748C186.037 33.25 186.026 41.6807 186.026 41.6807C186.026 43.0966 185.912 44.5464 185.505 45.3455C185.097 46.1446 184.477 46.8552 183.597 47.3185C182.715 47.7818 181.788 48.0343 180.226 48.0551C179.076 48.0707 177.957 47.6985 177.09 47.2092C176.226 46.7198 175.671 46.0535 175.288 45.3013C174.906 44.5464 174.797 42.9951 174.797 41.7223V30.8111C174.797 30.3608 174.432 29.9964 173.982 29.9964H172.006C171.912 29.9964 171.66 29.9964 171.35 29.9808C171.329 29.9808 171.306 29.9808 171.285 29.9782C171.251 29.9782 171.22 29.9756 171.183 29.973C170.598 29.9444 170.116 29.8923 169.874 29.8637C169.778 29.8767 169.692 29.9105 169.585 29.999L169.408 30.2333C170.275 30.3999 170.501 31.0506 170.585 31.2406C170.634 31.3525 170.65 31.7872 170.655 32.1854C170.655 32.1854 170.655 32.188 170.655 32.1906V42.3314C170.655 44.1248 171.043 46.2461 171.858 47.5996C172.672 48.9531 173.513 49.7417 174.966 50.4445C176.418 51.1473 178.292 51.647 180.268 51.621C183.772 51.5742 185.956 50.7751 187.676 49.2316C189.397 47.6881 190.155 45.6344 190.155 42.7635V30.8163C190.155 30.366 189.79 30.0016 189.34 30.0016L189.332 29.9964Z" fill="white"/>
<path d="M125.093 29.1842C124.224 30.0328 123.362 29.9885 123.362 29.9885H122.568C122.493 29.9911 122.417 29.9937 122.334 29.9937H104.449C104.449 29.9937 103.912 29.9859 103.746 30.7017C103.54 31.5737 102.801 34.1557 102.801 34.1557C102.801 34.1557 102.874 34.1974 102.993 34.2286C103.936 33.177 104.86 33.2187 104.86 33.2187H105.287H111.997V49.359V49.3616V49.5178C111.997 49.5178 112.083 50.6943 111.029 51.6391L111.419 51.85L116.128 49.0727L116.123 33.2161H123.628C123.628 33.2161 124.18 33.2603 124.375 32.5159C124.62 31.5789 125.265 29.3066 125.265 29.3066C125.265 29.3066 125.203 29.2389 125.096 29.1816L125.093 29.1842Z" fill="white"/>
<path d="M132.419 31.2381C132.46 31.3318 132.489 31.9799 132.489 31.9643L132.476 49.5648C132.476 49.5648 132.575 50.7465 131.526 51.7044L131.838 51.8736L136.542 49.0469V30.7982C136.542 30.3479 136.178 29.9835 135.727 29.9835L133.772 29.9939C133.614 29.9939 133.012 29.9887 132.437 29.934C131.898 29.8898 131.536 29.8403 131.536 29.8403L131.242 30.2308C132.109 30.3973 132.335 31.0481 132.419 31.2381Z" fill="white"/>
<path d="M59.6358 29.9963H55.8718C55.4605 29.9885 55.0701 29.9677 54.7421 29.9443C54.7265 29.9443 54.7083 29.9417 54.6926 29.9391C54.6666 29.9391 54.6406 29.9339 54.6146 29.9339C54.6041 29.9339 54.5937 29.9339 54.5833 29.9313C54.1044 29.8896 53.7868 29.8454 53.7686 29.8428C53.7686 29.8428 53.766 29.8428 53.7634 29.8428L53.4328 30.2853C53.6436 30.366 54.0341 30.5429 54.4245 30.8475C54.9243 31.2379 54.5339 32.2088 54.5339 32.2088L53.8336 33.8668H53.8232L47.7373 48.6276L47.7139 48.6589C47.4119 49.3018 46.5529 50.8739 45.418 50.9312L45.7434 51.345H46.6102C46.6102 51.345 46.6154 51.345 46.618 51.345H50.9443L53.0085 46.1497H62.4966L64.0715 49.8406L64.0923 49.89V49.9134C64.1964 50.2726 64.0064 50.5251 64.0064 50.5251C63.871 50.7177 63.5352 50.9572 63.3556 51.004L63.6055 51.3476H64.4098C64.5478 51.3476 64.7092 51.3476 64.7092 51.3476H69.0641L59.6358 30.0015V29.9963ZM54.2553 43.0159L57.5404 34.567L61.1456 43.0159H54.2527H54.2553Z" fill="white"/>
<path d="M162.213 41.876C161.383 40.8817 160.224 40.2049 158.735 39.8692V39.7182C159.712 39.2809 160.461 38.6692 160.977 37.9248C161.489 37.1804 161.747 36.3189 161.747 35.3428C161.747 33.8149 161.13 32.5421 159.899 31.5218C158.665 30.5041 156.825 29.9965 154.87 29.9965H148.24C148.24 29.9965 148.206 29.9913 148.188 29.9887C147.131 29.9627 146.269 29.8403 146.269 29.8403L145.978 30.2282C146.86 30.3947 147.139 31.0455 147.222 31.2355C147.308 31.4281 147.292 33.3047 147.29 33.7264C147.292 33.7889 147.292 33.8253 147.292 33.8253V48.5185C147.292 48.6486 147.292 48.8126 147.292 48.9844V49.4112C147.292 49.4112 147.292 49.5206 147.269 49.6637C147.259 49.7939 147.243 49.8954 147.225 49.9422C147.136 50.1427 146.889 50.8558 145.895 50.9704L146.095 51.34H156.234C160.914 51.4363 163.538 48.6044 163.46 45.3664C163.429 44.0337 163.046 42.8677 162.216 41.876H162.213ZM151.416 33.2188H154.38C155.328 33.2188 156.091 33.4609 156.674 33.945C157.254 34.4292 157.543 35.0825 157.543 35.9076C157.543 36.8342 157.226 37.5578 156.596 38.0784C155.963 38.599 155.104 38.8566 154.013 38.8566H151.416V33.2188ZM158.139 47.329C157.426 47.8547 156.372 48.115 154.977 48.115H151.416V42.079H155.297C156.489 42.079 157.439 42.3419 158.147 42.8651C158.855 43.3908 159.209 44.1066 159.209 45.0124C159.209 46.0301 158.853 46.8032 158.139 47.3264V47.329Z" fill="white"/>
<path d="M95.7886 29.96H93.8338C93.6724 29.96 93.0633 29.9548 92.4802 29.8975C92.147 29.8689 91.8867 29.8402 91.7409 29.822C91.6784 29.8246 91.6212 29.8402 91.5639 29.8663L91.3166 30.1968C92.1834 30.3634 92.4099 31.0141 92.4932 31.2041C92.5817 31.4046 92.5635 33.5623 92.5583 33.7601C92.5817 34.2391 92.5713 44.8587 92.5713 44.8587L79.8892 29.96H77.5517C77.5517 29.96 77.5178 29.96 77.4996 29.96C76.3256 29.9522 75.3156 29.8064 75.3156 29.8064L75.0215 30.1968C75.8883 30.3634 76.1148 31.0141 76.1981 31.2041C76.2788 31.3863 76.2657 32.7893 76.2657 32.7971V49.4138V49.5855C76.2657 49.5855 76.3516 50.762 75.2974 51.7069L75.6332 51.8891L80.3005 49.1352V36.1626L91.5925 49.5569C91.5925 49.5569 92.0481 50.0905 92.0897 50.533C92.1574 51.267 91.5691 51.6913 91.5691 51.6913L91.3817 51.8006L91.7045 52.014L96.606 49.1222V30.7747C96.606 30.3244 96.2416 29.96 95.7913 29.96H95.7886Z" fill="white"/>
<path d="M207.678 41.8837C207.678 41.8837 207.683 41.8837 207.686 41.8837C210.161 41.7015 212.301 40.0955 212.929 39.1923C213.556 38.2892 213.871 37.2272 213.871 36.0117C213.871 34.2235 213.236 32.7737 211.971 31.6597C210.703 30.5457 209.063 29.9886 207.051 29.9886H203.513L200.653 29.9964C200.64 29.9964 200.627 29.9964 200.613 29.9964H200.085C199.911 29.9964 199.2 29.9912 198.578 29.9184C198.479 29.9079 198.396 29.8949 198.323 29.8845L198.062 30.2307C198.945 30.3973 199.223 31.048 199.307 31.238C199.403 31.4566 199.372 33.8148 199.372 33.8148H199.359V33.8279V33.82V49.6246C199.359 49.6246 199.356 49.6324 199.354 49.635C199.354 49.8667 199.312 50.8766 198.383 51.7069L198.666 51.8605L203.495 49.0051L203.49 42.321H203.508V42.3626C205.926 42.7895 209.248 52.4357 217.552 51.3972C213.824 51.4701 210.627 43.2242 207.673 41.8837H207.678ZM203.516 40.6864V39.096H203.498V33.1511H203.516V32.4093C203.638 32.4457 204.083 32.5629 204.568 32.5811C205.861 32.6045 207.087 32.8205 207.806 33.4374C208.524 34.0543 208.881 34.9861 208.881 36.2329C208.881 37.4797 208.545 38.3959 207.795 39.057C206.572 40.1372 203.844 40.6291 203.513 40.6864H203.516Z" fill="white"/>
<path d="M38.3064 41.2512C37.4838 40.1814 36.1432 39.2079 34.2847 38.3308C32.1111 37.3365 30.8616 36.73 30.5363 36.514C29.3779 35.7904 28.8 34.9991 28.8 34.1454C28.8 33.4322 29.1098 32.8622 29.7345 32.4327C30.3567 32.0058 31.2183 31.7924 32.322 31.7924C33.7536 31.7924 35.3519 32.2401 37.1142 33.1198C37.3302 33.2083 37.5749 33.2604 37.8196 33.2916H37.8222C37.8847 33.302 37.9446 33.3072 38.0044 33.3124C38.0279 33.3124 38.0539 33.3176 38.0773 33.3202C38.4131 33.3463 38.7229 33.3411 38.9129 33.3307L36.5129 28C36.2422 28.7262 35.0656 28.6611 34.3706 28.557C33.6521 28.4373 32.9259 28.3722 32.1892 28.3722C29.8647 28.3722 27.9931 28.937 26.577 30.0667C25.161 31.1963 24.4529 32.7138 24.4529 34.6165C24.4529 36.0428 24.8928 37.2974 25.7753 38.3802C26.6577 39.463 27.9905 40.4078 29.7762 41.2199C31.2781 41.9435 32.5068 42.5656 33.4595 43.0862C34.6048 43.7447 35.1801 44.6011 35.1801 45.65C35.1801 46.4179 34.8495 47.0347 34.191 47.498C33.5298 47.9639 32.6656 48.1956 31.5957 48.1956C30.3983 48.1956 29.154 47.8729 27.8681 47.243C26.2178 46.3085 25.8534 44.7989 25.8534 44.7989H25.5905L24 48.8151C24 48.8151 24.6195 49.4684 26.1735 50.2805C26.918 50.6553 27.6156 50.9416 28.2612 51.1394C29.305 51.457 30.5519 51.6184 32.0018 51.6184C34.23 51.6184 36.0417 51.0223 37.4448 49.825C38.8452 48.6303 39.5454 47.0582 39.5454 45.1138C39.5454 43.612 39.1342 42.3236 38.3116 41.2538L38.3064 41.2512Z" fill="white"/>
<path d="M224.372 31.2381C224.414 31.3318 224.442 31.9799 224.442 31.9643L224.429 49.5648C224.429 49.5648 224.528 50.7465 223.479 51.7044L223.791 51.8736L228.495 49.0469V30.7982C228.495 30.3479 228.131 29.9835 227.68 29.9835L225.725 29.9939C225.567 29.9939 224.965 29.9887 224.39 29.934C223.851 29.8898 223.489 29.8403 223.489 29.8403L223.195 30.2308C224.062 30.3973 224.289 31.0481 224.372 31.2381Z" fill="white"/>
</g>
<defs>
<clipPath id="clip0_1374_14609">
<rect width="204.495" height="24.014" fill="white" transform="translate(24 28)"/>
</clipPath>
</defs>
</svg>
