<svg width="217" height="81" viewBox="0 0 217 81" fill="none" xmlns="http://www.w3.org/2000/svg">
<g clip-path="url(#clip0_1374_14615)">
<path d="M50.291 28.0139H48.082V51.812H50.291V28.0139Z" fill="white"/>
<path d="M136.469 28.0327H134.26V51.8121H136.469V28.0327Z" fill="white"/>
<path d="M32.7401 38.7006C30.8025 37.7597 28.0928 36.9265 27.0211 34.8903C26.1225 33.1864 26.7917 31.0331 28.3128 29.9284C30.1052 28.6271 32.4125 29.0905 34.0739 30.3544C34.7572 30.874 35.403 31.4451 35.9974 32.063C36.3905 32.4702 36.7556 32.8962 37.1721 33.2847L38.3094 30.7382C38.3094 30.7148 37.4295 30.0735 37.3265 30.0127C35.5154 28.8893 33.2923 28.0139 31.1348 28.0139C27.1053 28.0139 24.2084 30.5557 24.2084 33.926C24.2084 36.9827 26.6747 39.1266 29.2347 40.3389C31.7198 41.5185 35.5575 42.2347 35.96 45.3804C36.3484 48.4136 34.1581 51.1286 31.205 50.9086C29.1084 50.7541 27.3206 48.9988 25.1958 46.8268L24.0586 49.3779L24.3862 49.6401C25.8932 50.5809 27.9524 52.0788 31.0974 52.032C34.3126 51.9852 37.6073 49.9958 38.2813 46.7051C39.1096 42.642 35.974 40.264 32.7401 38.6959V38.7006Z" fill="white"/>
<path d="M192.387 28.0327H191.226V47.6507L176.447 28.0421H173.816V28.5008L174.888 29.9145V51.8121H176.049V31.506L191.694 51.8121H192.401L192.387 28.0327Z" fill="white"/>
<path d="M163.379 28.0327V47.6507L148.595 28.0421H145.965V28.5008L147.037 29.9145V51.8121H148.197V31.506L163.843 51.8121H164.549L164.535 28.0327H163.379Z" fill="white"/>
<path d="M122.991 28.0327V47.6507L108.206 28.0421H105.576V28.5008L106.648 29.9145V51.8121H107.809V31.506L123.454 51.8121H124.161L124.147 28.0327H122.991Z" fill="white"/>
<path d="M90.3945 28.0466H89.889L84.6427 41.4951L83.936 43.3207C82.8783 46.0497 81.7832 48.8723 80.7021 51.4375L80.543 51.8167H81.8253L81.8955 51.6435C83.4165 47.8519 84.2496 45.8999 84.8252 44.3692L85.5132 42.5951H93.736L97.3209 51.8167H99.6797L90.4647 28.2198L90.3945 28.0466ZM85.9718 41.3781L89.6035 31.9974L93.2493 41.3781H85.9671H85.9718Z" fill="white"/>
<path d="M67.8729 41.2048C71.1723 40.5167 75.1176 38.3214 75.2205 34.2676C75.2627 32.6855 74.7806 31.3701 73.7978 30.359C72.2768 28.8096 69.6513 28.0232 65.9821 28.0232H60.6328V51.7932H62.8418V41.364H65.2333L73.2409 51.8119H76.0068L67.8682 41.2048H67.8729ZM62.8418 28.7862H65.9821C70.2597 28.7862 72.815 30.9067 72.815 34.4549C72.815 35.0259 72.7448 35.6017 72.5903 36.1541C72.4453 36.669 72.23 37.1652 71.9398 37.6192C71.659 38.0592 71.3127 38.4571 70.9149 38.7941C70.5077 39.1405 70.0491 39.4214 69.5624 39.6367C69.0429 39.8661 68.4906 40.0205 67.929 40.1048C67.2176 40.2125 66.4969 40.1844 65.7762 40.1844C64.9197 40.1844 64.0633 40.1844 63.2068 40.1844C63.0852 40.1844 62.9635 40.1844 62.8418 40.1844V28.7862Z" fill="white"/>
</g>
<defs>
<clipPath id="clip0_1374_14615">
<rect width="168.341" height="24" fill="white" transform="translate(24.0586 28.0139)"/>
</clipPath>
</defs>
</svg>
