<svg width="197" height="80" viewBox="0 0 197 80" fill="none" xmlns="http://www.w3.org/2000/svg">
<g clip-path="url(#clip0_5_468)">
<path d="M36.1081 51.647C36.1081 51.647 36.083 51.647 36.0723 51.647V51.7155H36.1081V51.647Z" fill="#010101"/>
<path d="M52.9079 49.4102L45.999 28.3026H43.619V28.371C44.056 28.371 44.3919 28.7708 44.6591 29.2751L38.9023 47.8325H39.3393L40.2314 44.9617H49.7911L51.2321 49.4102C51.633 50.6492 50.8637 51.6506 49.9898 51.6506V51.719H55.1543V51.6506C54.2839 51.6506 53.2076 50.4115 52.9079 49.4102ZM40.365 44.5259L44.8578 29.8082C44.9264 29.909 44.9589 30.0423 44.9914 30.1432L49.6539 44.5259H40.365Z" fill="#010101"/>
<path d="M28.9642 28.3026L28.9967 28.371C28.1588 28.371 27.5195 29.7073 27.5195 30.579V51.3192H39.322C41.3662 51.3192 43.1792 49.1112 43.58 48.009H43.6487L42.8108 51.6866V51.719H24.5039V51.6506C25.3418 51.6506 25.9449 50.3143 25.9449 49.4102V30.5754C25.9449 29.7073 25.3418 28.3674 24.5039 28.3674V28.299H28.9642V28.3026Z" fill="#010101"/>
<path d="M64.8848 51.7839V45.8298H65.0184C65.3543 49.9108 68.0701 51.5822 70.721 51.5822C73.3719 51.5822 76.1889 49.9108 76.1889 46.6655C76.1889 40.5457 65.524 38.6366 65.524 32.5817C65.5204 29.6713 68.0701 28.0324 70.5874 28.0324C73.2708 28.0324 74.3434 29.538 75.0801 29.538C75.6508 29.538 75.853 29.0013 75.853 28.3674H75.9866V33.8856H75.8205C75.6544 30.2404 73.036 28.5007 70.6235 28.5007C68.5758 28.5007 66.5316 29.5705 66.5316 31.8469C66.5316 37.167 77.4999 39.1409 77.4999 45.9631C77.4999 49.9433 74.2459 52.018 70.591 52.018C67.9076 52.018 66.5316 50.6132 65.7624 50.6132C65.2243 50.6132 65.0256 51.1499 65.0256 51.7839H64.892H64.8848Z" fill="#010101"/>
<path d="M81.4102 39.9766C81.4102 33.9901 84.4619 28 90.5654 28C96.6689 28 99.6881 33.9865 99.6881 39.9766C99.6881 45.9667 96.6689 51.9171 90.5329 51.9171C84.3969 51.9171 81.4102 45.9307 81.4102 39.9766ZM89.5939 28.4683C79.6333 29.3039 81.4788 52.2845 91.5044 51.4489C101.465 50.6456 99.6195 27.665 89.5939 28.4683Z" fill="#010101"/>
<path d="M103.93 51.6506C104.768 51.6506 105.371 50.3143 105.371 49.4102V30.5754C105.371 29.7073 104.768 28.3674 103.93 28.3674V28.299H108.39L108.422 28.3674C107.585 28.3674 106.945 29.7037 106.945 30.5754V49.4102C106.945 50.5124 107.718 51.6506 108.422 51.6506L108.39 51.719H103.93V51.6506Z" fill="#010101"/>
<path d="M113.47 51.6506C114.308 51.6506 114.911 50.3143 114.911 49.4102V30.5754C114.911 29.7073 114.308 28.3674 113.47 28.3674V28.299H125.847L126.45 32.0126H126.382C126.114 31.2094 124.637 28.7024 122.593 28.7024H116.49V39.8073H120.48C122.192 39.8073 123.131 38.8023 123.131 37.1634H123.232V42.851H123.131C123.131 41.212 122.192 40.2071 120.48 40.2071H116.49V51.312H122.828C124.872 51.312 126.952 49.2048 127.422 48.0018H127.49L126.385 51.6794V51.7118H113.474V51.6434L113.47 51.6506Z" fill="#010101"/>
<path d="M160.199 51.7839V45.8298H160.333C160.669 49.9108 163.385 51.5822 166.035 51.5822C168.686 51.5822 171.503 49.9108 171.503 46.6655C171.503 40.5457 160.838 38.6366 160.838 32.5817C160.838 29.6713 163.388 28.0324 165.902 28.0324C168.585 28.0324 169.658 29.538 170.395 29.538C170.965 29.538 171.167 29.0013 171.167 28.3674H171.301V33.8856H171.135C170.969 30.2404 168.35 28.5007 165.938 28.5007C163.89 28.5007 161.846 29.5705 161.846 31.8469C161.846 37.167 172.814 39.1409 172.814 45.9631C172.814 49.9433 169.56 52.018 165.905 52.018C163.222 52.018 161.846 50.6132 161.077 50.6132C160.539 50.6132 160.34 51.1499 160.34 51.7839H160.206H160.199Z" fill="#010101"/>
<path d="M147.23 36.8501C146.306 38.3593 145.381 39.6632 144.46 40.769C143.539 41.8713 142.734 42.462 142.044 42.5448C141.643 42.5916 141.362 42.498 141.192 42.2603C141.022 42.0261 140.975 41.6767 141.051 41.2193C141.109 40.8699 141.235 40.4773 141.43 40.0378L141.452 39.9838C141.001 40.7871 140.495 41.475 139.935 42.0586C139.375 42.6385 138.794 42.9518 138.191 42.9951C137.696 43.0275 137.356 42.8762 137.169 42.5448C136.985 42.2134 136.938 41.7632 137.031 41.1869C137.147 40.4953 137.432 39.7425 137.895 38.9248C138.357 38.1108 138.909 37.4048 139.56 36.8141C140.206 36.2233 140.86 35.8884 141.517 35.8127C141.658 35.7947 141.802 35.7911 141.947 35.8019C142.326 35.8379 142.568 36.0072 142.684 36.3098C142.795 36.6124 142.803 36.9726 142.702 37.3904C143.399 35.9892 144.06 34.6781 144.692 33.4606C145.32 32.2432 145.717 31.512 145.88 31.2742C146.064 31.0077 146.255 30.8312 146.461 30.7447C146.667 30.6583 146.916 30.6007 147.205 30.5646C146.902 30.9717 145.721 33.2085 143.662 37.2787L143.648 37.2931L143.626 37.3472C143.164 38.2116 142.738 39.0725 142.344 39.9298C141.99 40.6826 141.781 41.2733 141.712 41.6948C141.625 42.2242 141.777 42.4656 142.167 42.4224C142.792 42.3503 143.529 41.7956 144.381 40.7582C145.233 39.7209 146.158 38.4206 147.158 36.8609L147.234 36.8537L147.23 36.8501ZM140.206 41.6876C140.813 40.9311 141.354 40.0883 141.835 39.159C141.947 38.9248 142.015 38.7772 142.044 38.7123L142.485 37.8154C142.568 37.6029 142.629 37.3904 142.665 37.1743C142.73 36.7781 142.691 36.4611 142.546 36.2233C142.402 35.9856 142.124 35.8884 141.705 35.9388C141.199 35.9964 140.661 36.3494 140.094 36.9942C139.527 37.6389 139.029 38.3917 138.599 39.2634C138.169 40.1315 137.902 40.8951 137.793 41.5507C137.725 41.9649 137.732 42.2855 137.819 42.5196C137.902 42.7537 138.072 42.8618 138.328 42.851C138.974 42.8366 139.599 42.4512 140.206 41.6948V41.6876Z" fill="#636B3E"/>
<path d="M153.269 36.1441C152.391 37.6641 151.441 38.9896 150.423 40.1171C149.404 41.2445 148.433 41.864 147.512 41.9685C147.385 41.9829 147.292 41.9901 147.227 41.9901C146.667 41.9757 146.277 41.756 146.064 41.3345C145.847 40.9095 145.796 40.3656 145.905 39.7028C146.02 39.0041 146.288 38.2837 146.706 37.5489C147.125 36.8141 147.642 36.1945 148.252 35.6974C148.866 35.2004 149.513 34.9374 150.192 34.9086C150.571 34.8906 150.838 34.9878 150.993 35.204C151.149 35.4201 151.196 35.7118 151.138 36.0792C151.073 36.4755 150.899 36.8897 150.614 37.3291C150.329 37.7686 149.971 38.1504 149.538 38.471C149.105 38.7951 148.646 38.986 148.166 39.0401C147.75 39.0869 147.357 39.0293 146.985 38.86V38.8348C146.815 39.285 146.696 39.7172 146.627 40.1315C146.544 40.643 146.558 41.0572 146.674 41.367C146.79 41.6803 147.013 41.8424 147.346 41.8568C147.404 41.8568 147.494 41.8532 147.617 41.8388C148.473 41.738 149.386 41.1508 150.354 40.0702C151.322 38.9932 152.268 37.6857 153.189 36.1513L153.265 36.1441H153.269ZM149.018 35.5894C148.617 35.9496 148.241 36.4106 147.891 36.9761C147.541 37.5417 147.248 38.1324 147.017 38.7483C147.414 38.9032 147.819 38.9572 148.227 38.9104C148.693 38.8564 149.126 38.6799 149.531 38.3809C149.935 38.0819 150.267 37.7254 150.528 37.3147C150.788 36.9005 150.95 36.5043 151.011 36.1297C151.069 35.7803 151.029 35.4993 150.892 35.2904C150.755 35.0815 150.517 34.9878 150.181 35.0095C149.809 35.0347 149.422 35.2292 149.021 35.5858L149.018 35.5894Z" fill="#636B3E"/>
<path d="M135.429 48.5061C136.477 46.1432 139.33 45.2643 141.71 45.1022C144.642 44.9005 147.694 45.4552 150.5 44.3242C151.753 43.8199 152.866 42.9879 153.541 41.8064C153.624 41.6623 153.693 41.4858 153.693 41.3165C153.693 41.1977 153.631 41.1509 153.559 41.2769C152.248 43.5786 149.355 44.2666 146.896 44.3638C143.974 44.4791 140.893 43.9964 138.17 45.3328C136.957 45.9271 135.928 46.86 135.375 48.1099C135.321 48.2323 135.213 48.4557 135.263 48.5925C135.31 48.7222 135.397 48.5853 135.429 48.5061Z" fill="#636B3E"/>
</g>
<defs>
<clipPath id="clip0_5_468">
<rect width="148.308" height="24" fill="white" transform="translate(24.5039 28)"/>
</clipPath>
</defs>
</svg>
