<svg width="132" height="80" viewBox="0 0 132 80" fill="none" xmlns="http://www.w3.org/2000/svg">
<g clip-path="url(#clip0_5_471)">
<path fill-rule="evenodd" clip-rule="evenodd" d="M31.9082 38.1462L31.9082 38.1462L31.9083 38.1463C32.3114 38.3242 32.7032 38.4972 33.0676 38.6739H33.0719C36.3048 40.2426 39.4355 42.6169 38.6049 46.675C37.9362 49.9616 34.6479 51.948 31.4363 51.9949C28.5564 52.0379 26.5871 50.7823 25.1205 49.8472L25.1204 49.8472C24.9884 49.763 24.8604 49.6814 24.7362 49.6035L24.4082 49.3435L25.5455 46.7987C27.6667 48.9684 29.4514 50.7204 31.5428 50.8738C34.486 51.087 36.6754 48.3801 36.2878 45.3493C35.9706 42.8639 33.4989 41.8953 31.2528 41.0152C30.6637 40.7843 30.09 40.5595 29.5749 40.315C27.0192 39.1002 24.5573 36.9603 24.5573 33.9081C24.5573 30.5406 27.4494 28 31.4704 28C33.6256 28 35.8448 28.8739 37.6551 29.995C37.753 30.0546 38.6347 30.6983 38.6347 30.7196L37.4975 33.2645C37.21 32.9974 36.9468 32.7141 36.6828 32.4299L36.6827 32.4299C36.5634 32.3014 36.4439 32.1727 36.3219 32.0453C35.7255 31.4272 35.0824 30.856 34.4008 30.336C32.7439 29.0785 30.4396 28.6138 28.6506 29.914C27.13 31.018 26.4655 33.1707 27.36 34.8715C28.2276 36.5216 30.1724 37.38 31.9082 38.1462ZM78.0342 28H75.832V51.769H78.0342V28ZM106.338 28.017V47.6128L91.5832 28.0298H88.9551V28.4859L90.0285 29.8969V51.769H91.187V31.4869L106.806 51.769H107.505L107.496 28.017H106.338ZM65.8398 34.2492C65.7376 38.2903 61.8099 40.4853 58.5152 41.174L66.6363 51.7647H63.8762L55.8812 41.3296H53.4916V51.7477H51.2853V28.0085H56.6223C60.2812 28.0085 62.905 28.7971 64.4171 30.3488C65.401 31.3548 65.8781 32.6677 65.8398 34.2492ZM53.4916 28.7716H56.6223C60.8946 28.7716 63.446 30.8859 63.446 34.4325C63.446 35.0037 63.3735 35.5791 63.2202 36.129C63.0754 36.6448 62.8582 37.1393 62.5728 37.5911C62.2916 38.0302 61.9466 38.4266 61.5505 38.7634C61.1459 39.1087 60.6858 39.39 60.2003 39.6074C59.6806 39.8376 59.1311 39.9911 58.5689 40.0721C57.9729 40.1614 57.3708 40.1579 56.7704 40.1544H56.7702C56.6541 40.1537 56.5381 40.1531 56.4221 40.1531H53.858H53.4916V28.7716ZM47.6517 28.017H44.7936L41.4414 34.2491H43.2857L47.6517 28.4731V28.017Z" fill="#003B5E"/>
</g>
<defs>
<clipPath id="clip0_5_471">
<rect width="83.0909" height="24" fill="white" transform="translate(24.4082 28)"/>
</clipPath>
</defs>
</svg>
