<svg width="175" height="81" viewBox="0 0 175 81" fill="none" xmlns="http://www.w3.org/2000/svg">
<g clip-path="url(#clip0_1374_14667)">
<path d="M119.17 63.3281L121.858 60.5767V31.5246L119.17 28.7732H138.957V33.0429L135.274 31.3512H125.657V43.6518H133.432L136.177 42.3955V47.49L133.432 46.2298H125.657V60.7539H136.12L139.803 59.0661V63.332H119.174L119.17 63.3281Z" fill="white"/>
<path d="M34.8477 63.3281L37.5355 60.5767V31.5246L34.8477 28.7732H54.6352V33.0429L50.9514 31.3512H41.3345V43.6518H49.1096L51.8551 42.3955V47.49L49.1096 46.2298H41.3345V60.7539H51.7974L55.4811 59.0661V63.332H34.8477V63.3281Z" fill="white"/>
<path d="M79.6681 46.8926L72.6582 41.8021C70.1473 39.987 68.863 37.6479 68.863 35.8907C68.863 32.2606 71.9584 30.9735 73.8272 30.9735C74.3963 30.9735 74.8692 31.1084 75.2691 31.224L77.5801 32.2645L79.9603 33.3473L82.2943 29.8599L75.4614 28.5728C74.9961 28.4572 74.7039 28.3955 73.8272 28.3955C67.8132 28.3955 65.0678 33.5477 65.0678 36.8811C65.0678 39.513 66.4097 42.4996 69.5051 44.7809L76.5727 49.8714C78.4991 51.2163 79.0259 53.2086 79.0259 54.9042C79.0259 57.829 77.2148 60.9928 73.3042 60.9928C72.3698 60.9928 71.5508 60.8156 70.9086 60.5265L66.5943 58.5497L64.6602 62.0487L71.2586 63.3358C71.2586 63.3358 72.3698 63.5708 73.3042 63.5708C77.4494 63.5708 82.8827 60.0603 82.8827 53.5053C82.8827 50.1103 81.3061 48.0024 79.6719 46.8926H79.6681Z" fill="white"/>
<path d="M106.865 46.8926L99.8555 41.8021C97.3446 39.987 96.0603 37.6479 96.0603 35.8907C96.0603 32.2606 99.1557 30.9735 101.024 30.9735C101.594 30.9735 102.066 31.1084 102.466 31.224L104.777 32.2645L107.158 33.3473L109.492 29.8599L102.659 28.5728C102.193 28.4572 101.901 28.3955 101.024 28.3955C95.0105 28.3955 92.265 33.5477 92.265 36.8811C92.265 39.513 93.607 42.4996 96.7024 44.7809L103.77 49.8714C105.696 51.2163 106.223 53.2086 106.223 54.9042C106.223 57.829 104.412 60.9928 100.501 60.9928C99.5671 60.9928 98.7481 60.8156 98.1059 60.5265L93.7916 58.5497L91.8574 62.0487L98.4558 63.3358C98.4558 63.3358 99.5671 63.5708 100.501 63.5708C104.647 63.5708 110.08 60.0603 110.08 53.5053C110.08 50.1103 108.503 48.0024 106.869 46.8926H106.865Z" fill="white"/>
<path d="M78.1055 16.8308H74.5756V16.4647C74.7601 16.3992 74.9447 16.3376 75.1331 16.2875C75.3215 16.2374 75.5253 16.195 75.7407 16.1603V8.66897H73.8181L73.1528 10.4686H72.8375C72.8106 10.299 72.7914 10.1102 72.776 9.8944C72.7606 9.6786 72.7452 9.4628 72.7337 9.2393C72.7222 9.01579 72.7106 8.79999 72.7029 8.58419C72.6953 8.36839 72.6914 8.17957 72.6914 8.01001H79.9935C79.9935 8.17957 79.9896 8.36839 79.9819 8.57648C79.9743 8.78458 79.9627 9.00423 79.9512 9.22388C79.9397 9.44739 79.9243 9.66319 79.9127 9.87899C79.9012 10.0948 79.882 10.2875 79.8551 10.4647H79.5244L78.863 8.66512H76.9519V16.1603C77.1711 16.2027 77.371 16.2451 77.5595 16.2875C77.7479 16.3299 77.9286 16.3877 78.1055 16.4647V16.8308Z" fill="white"/>
<path d="M86.2835 16.8308H83.1035V16.4647C83.438 16.3299 83.7803 16.2297 84.134 16.1642V8.69209C83.7418 8.63429 83.3958 8.53024 83.1035 8.3761V8.01001H86.2835V8.3761C86.1412 8.45317 85.9913 8.51483 85.8298 8.56492C85.6721 8.61502 85.5068 8.65741 85.3414 8.69209V11.9792H89.2866V8.69209C89.1098 8.6497 88.9444 8.60346 88.7906 8.55336C88.6368 8.50327 88.4868 8.44546 88.3445 8.3761V8.01001H91.5245V8.3761C91.3746 8.46088 91.2092 8.52639 91.0285 8.57263C90.8478 8.61887 90.6709 8.65741 90.494 8.69209V16.1603C90.6863 16.195 90.8709 16.2374 91.0477 16.2875C91.2246 16.3376 91.3823 16.3954 91.5245 16.4647V16.8308H88.3445V16.4647C88.6445 16.3299 88.9598 16.2297 89.2866 16.1642V12.6381H85.3414V16.1642C85.5106 16.1988 85.6721 16.2412 85.8298 16.2913C85.9874 16.3414 86.1412 16.3992 86.2835 16.4686V16.8347V16.8308Z" fill="white"/>
<path d="M100.722 8.01392C100.714 8.34918 100.699 8.68829 100.68 9.0274C100.66 9.36652 100.626 9.70948 100.587 10.0525H100.261L99.7453 8.66902H97.0075V12.0062H99.057L99.5454 11.0736H99.8607C99.9107 11.906 99.9107 12.7538 99.8607 13.617H99.5454L99.057 12.6613H97.0075V16.1758H99.8991L100.514 14.6652H100.83C100.887 15.0158 100.93 15.3742 100.957 15.7365C100.983 16.0987 100.987 16.4609 100.968 16.8309H94.7734V16.4648C95.0657 16.3299 95.4117 16.2297 95.804 16.1642V8.69214C95.6348 8.65746 95.4656 8.61507 95.2887 8.56112C95.1118 8.50717 94.9426 8.44552 94.7734 8.38V8.01392H100.73H100.722Z" fill="white"/>
<path d="M24.1133 21.3394H150.883V19.8211L87.4979 20.746L24.1133 19.667V21.3394Z" fill="white"/>
<path d="M150.883 70.6382H24.1133V72.1603L87.4979 71.2355L150.883 72.3145V70.6382Z" fill="white"/>
</g>
<defs>
<clipPath id="clip0_1374_14667">
<rect width="126.769" height="64" fill="white" transform="translate(24.1133 8.01392)"/>
</clipPath>
</defs>
</svg>
