<svg width="253" height="80" viewBox="0 0 253 80" fill="none" xmlns="http://www.w3.org/2000/svg">
<g clip-path="url(#clip0_5_467)">
<path d="M189.338 29.9964H187.292C187.136 29.9964 186.553 29.9912 185.985 29.9392C185.628 29.9105 185.35 29.8793 185.191 29.8611C185.118 29.8663 185.056 29.8819 184.988 29.9209L184.754 30.2333C185.621 30.3999 185.847 31.0506 185.93 31.2406C186.001 31.402 186.003 32.2453 186.001 32.6748C186.042 33.25 186.032 41.6807 186.032 41.6807C186.032 43.0966 185.917 44.5464 185.511 45.3455C185.103 46.1446 184.483 46.8552 183.603 47.3185C182.721 47.7818 181.794 48.0343 180.232 48.0551C179.082 48.0707 177.962 47.6985 177.096 47.2092C176.231 46.7198 175.677 46.0535 175.294 45.3013C174.912 44.5464 174.802 42.9951 174.802 41.7223V30.8111C174.802 30.3608 174.438 29.9964 173.988 29.9964H172.012C171.918 29.9964 171.666 29.9964 171.356 29.9808C171.335 29.9808 171.312 29.9808 171.291 29.9782C171.257 29.9782 171.226 29.9756 171.189 29.973C170.604 29.9444 170.122 29.8923 169.88 29.8637C169.784 29.8767 169.698 29.9105 169.591 29.999L169.414 30.2333C170.281 30.3999 170.507 31.0506 170.591 31.2406C170.64 31.3525 170.656 31.7872 170.661 32.1854C170.661 32.1854 170.661 32.188 170.661 32.1906V42.3314C170.661 44.1248 171.049 46.2461 171.864 47.5996C172.678 48.9531 173.519 49.7417 174.972 50.4445C176.424 51.1473 178.298 51.647 180.274 51.621C183.778 51.5742 185.962 50.7751 187.682 49.2316C189.403 47.6881 190.16 45.6344 190.16 42.7635V30.8163C190.16 30.366 189.796 30.0016 189.346 30.0016L189.338 29.9964Z" fill="#79242F"/>
<path d="M125.099 29.1843C124.23 30.0328 123.368 29.9886 123.368 29.9886H122.574C122.499 29.9912 122.423 29.9938 122.34 29.9938H104.454C104.454 29.9938 103.918 29.986 103.752 30.7018C103.546 31.5737 102.807 34.1558 102.807 34.1558C102.807 34.1558 102.88 34.1974 102.999 34.2287C103.942 33.1771 104.866 33.2187 104.866 33.2187H105.293H112.003V49.3591V49.3617V49.5179C112.003 49.5179 112.089 50.6944 111.035 51.6392L111.425 51.85L116.134 49.0728L116.129 33.2161H123.634C123.634 33.2161 124.186 33.2604 124.381 32.516C124.625 31.5789 125.271 29.3066 125.271 29.3066C125.271 29.3066 125.209 29.239 125.102 29.1817L125.099 29.1843Z" fill="#79242F"/>
<path d="M132.425 31.2379C132.466 31.3316 132.495 31.9798 132.495 31.9641L132.482 49.5647C132.482 49.5647 132.581 50.7464 131.532 51.7042L131.844 51.8734L136.548 49.0467V30.7981C136.548 30.3478 136.183 29.9834 135.733 29.9834L133.778 29.9938C133.619 29.9938 133.018 29.9886 132.443 29.9339C131.904 29.8897 131.542 29.8402 131.542 29.8402L131.248 30.2306C132.115 30.3972 132.341 31.0479 132.425 31.2379Z" fill="#79242F"/>
<path d="M59.6417 29.9964H55.8777C55.4664 29.9886 55.076 29.9678 54.748 29.9443C54.7323 29.9443 54.7141 29.9417 54.6985 29.9391C54.6725 29.9391 54.6464 29.9339 54.6204 29.9339C54.61 29.9339 54.5996 29.9339 54.5892 29.9313C54.1102 29.8897 53.7926 29.8454 53.7744 29.8428C53.7744 29.8428 53.7718 29.8428 53.7692 29.8428L53.4386 30.2853C53.6495 30.366 54.0399 30.543 54.4304 30.8475C54.9302 31.238 54.5397 32.2088 54.5397 32.2088L53.8395 33.8669H53.8291L47.7431 48.6277L47.7197 48.6589C47.4178 49.3018 46.5588 50.874 45.4238 50.9312L45.7492 51.3451H46.616C46.616 51.3451 46.6212 51.3451 46.6238 51.3451H50.9501L53.0143 46.1498H62.5025L64.0773 49.8406L64.0981 49.8901V49.9135C64.2023 50.2727 64.0122 50.5252 64.0122 50.5252C63.8769 50.7178 63.5411 50.9572 63.3615 51.0041L63.6114 51.3477H64.4157C64.5537 51.3477 64.7151 51.3477 64.7151 51.3477H69.07L59.6417 30.0016V29.9964ZM54.2612 43.0159L57.5462 34.567L61.1515 43.0159H54.2586H54.2612Z" fill="#79242F"/>
<path d="M162.219 41.8758C161.389 40.8816 160.23 40.2048 158.741 39.869V39.7181C159.717 39.2808 160.467 38.6691 160.982 37.9247C161.495 37.1803 161.753 36.3187 161.753 35.3427C161.753 33.8148 161.136 32.542 159.905 31.5217C158.671 30.5039 156.831 29.9964 154.876 29.9964H148.246C148.246 29.9964 148.212 29.9912 148.194 29.9886C147.137 29.9625 146.275 29.8402 146.275 29.8402L145.984 30.228C146.866 30.3946 147.145 31.0453 147.228 31.2353C147.314 31.428 147.298 33.3046 147.296 33.7263C147.298 33.7887 147.298 33.8252 147.298 33.8252V48.5183C147.298 48.6485 147.298 48.8125 147.298 48.9843V49.4111C147.298 49.4111 147.298 49.5204 147.275 49.6636C147.264 49.7937 147.249 49.8953 147.231 49.9421C147.142 50.1425 146.895 50.8557 145.9 50.9702L146.101 51.3398H156.24C160.92 51.4362 163.544 48.6042 163.466 45.3663C163.435 44.0336 163.052 42.8675 162.222 41.8758H162.219ZM151.421 33.2187H154.386C155.334 33.2187 156.097 33.4608 156.68 33.9449C157.26 34.4291 157.549 35.0824 157.549 35.9075C157.549 36.8341 157.231 37.5577 156.602 38.0783C155.969 38.5988 155.11 38.8565 154.019 38.8565H151.421V33.2187ZM158.145 47.3288C157.432 47.8546 156.378 48.1149 154.982 48.1149H151.421V42.0789H155.303C156.495 42.0789 157.445 42.3418 158.153 42.8649C158.861 43.3907 159.215 44.1065 159.215 45.0123C159.215 46.03 158.858 46.8031 158.145 47.3262V47.3288Z" fill="#79242F"/>
<path d="M95.7945 29.96H93.8396C93.6782 29.96 93.0691 29.9548 92.486 29.8975C92.1528 29.8689 91.8925 29.8402 91.7468 29.822C91.6843 29.8246 91.627 29.8402 91.5697 29.8663L91.3225 30.1968C92.1893 30.3634 92.4157 31.0141 92.499 31.2041C92.5875 31.4046 92.5693 33.5623 92.5641 33.7601C92.5875 34.2391 92.5771 44.8587 92.5771 44.8587L79.8951 29.96H77.5575C77.5575 29.96 77.5237 29.96 77.5055 29.96C76.3315 29.9522 75.3215 29.8064 75.3215 29.8064L75.0273 30.1968C75.8942 30.3634 76.1206 31.0141 76.2039 31.2041C76.2846 31.3863 76.2716 32.7893 76.2716 32.7971V49.4138V49.5855C76.2716 49.5855 76.3575 50.762 75.3033 51.7069L75.6391 51.8891L80.3063 49.1352V36.1626L91.5984 49.5569C91.5984 49.5569 92.0539 50.0905 92.0956 50.533C92.1632 51.267 91.575 51.6913 91.575 51.6913L91.3875 51.8006L91.7103 52.014L96.6119 49.1222V30.7747C96.6119 30.3244 96.2474 29.96 95.7971 29.96H95.7945Z" fill="#79242F"/>
<path d="M207.684 41.8837C207.684 41.8837 207.689 41.8837 207.692 41.8837C210.167 41.7015 212.307 40.0955 212.934 39.1923C213.562 38.2891 213.877 37.2271 213.877 36.0116C213.877 34.2234 213.242 32.7736 211.976 31.6596C210.709 30.5456 209.069 29.9886 207.057 29.9886H203.519L200.658 29.9964C200.645 29.9964 200.632 29.9964 200.619 29.9964H200.091C199.917 29.9964 199.206 29.9912 198.584 29.9183C198.485 29.9079 198.402 29.8949 198.329 29.8845L198.068 30.2306C198.951 30.3972 199.229 31.0479 199.313 31.2379C199.409 31.4566 199.378 33.8148 199.378 33.8148H199.365V33.8278V33.82V49.6246C199.365 49.6246 199.362 49.6324 199.359 49.635C199.359 49.8666 199.318 50.8765 198.389 51.7069L198.672 51.8604L203.501 49.0051L203.496 42.3209H203.514V42.3626C205.932 42.7894 209.254 52.4357 217.557 51.3971C213.83 51.47 210.633 43.2241 207.679 41.8837H207.684ZM203.522 40.6863V39.096H203.504V33.151H203.522V32.4092C203.644 32.4457 204.089 32.5628 204.573 32.581C205.867 32.6044 207.093 32.8205 207.812 33.4374C208.53 34.0542 208.887 34.9861 208.887 36.2328C208.887 37.4796 208.551 38.3958 207.801 39.0569C206.578 40.1371 203.85 40.6291 203.519 40.6863H203.522Z" fill="#79242F"/>
<path d="M38.3122 41.2512C37.4897 40.1814 36.1491 39.2079 34.2905 38.3308C32.117 37.3365 30.8675 36.73 30.5421 36.514C29.3838 35.7904 28.8059 34.9991 28.8059 34.1454C28.8059 33.4322 29.1157 32.8622 29.7404 32.4327C30.3625 32.0058 31.2241 31.7924 32.3278 31.7924C33.7595 31.7924 35.3578 32.2401 37.12 33.1198C37.3361 33.2083 37.5808 33.2604 37.8255 33.2916H37.8281C37.8905 33.302 37.9504 33.3072 38.0103 33.3124C38.0337 33.3124 38.0597 33.3176 38.0832 33.3202C38.419 33.3463 38.7287 33.3411 38.9188 33.3307L36.5187 28C36.248 28.7262 35.0714 28.6611 34.3764 28.557C33.658 28.4373 32.9317 28.3722 32.1951 28.3722C29.8705 28.3722 27.9989 28.937 26.5829 30.0667C25.1668 31.1963 24.4588 32.7138 24.4588 34.6165C24.4588 36.0428 24.8987 37.2974 25.7811 38.3802C26.6636 39.463 27.9963 40.4078 29.782 41.2199C31.284 41.9435 32.5126 42.5656 33.4654 43.0862C34.6107 43.7447 35.186 44.6011 35.186 45.65C35.186 46.4179 34.8554 47.0347 34.1968 47.498C33.5356 47.9639 32.6714 48.1956 31.6016 48.1956C30.4042 48.1956 29.1599 47.8729 27.874 47.243C26.2237 46.3085 25.8592 44.7989 25.8592 44.7989H25.5963L24.0059 48.8151C24.0059 48.8151 24.6254 49.4684 26.1794 50.2805C26.9239 50.6553 27.6215 50.9416 28.2671 51.1394C29.3109 51.457 30.5577 51.6184 32.0076 51.6184C34.2359 51.6184 36.0476 51.0223 37.4506 49.825C38.8511 48.6303 39.5513 47.0582 39.5513 45.1138C39.5513 43.612 39.14 42.3236 38.3174 41.2538L38.3122 41.2512Z" fill="#79242F"/>
<path d="M224.378 31.238C224.42 31.3317 224.448 31.9798 224.448 31.9642L224.435 49.5647C224.435 49.5647 224.534 50.7464 223.485 51.7043L223.797 51.8735L228.501 49.0468V30.7981C228.501 30.3478 228.137 29.9834 227.686 29.9834L225.731 29.9938C225.573 29.9938 224.971 29.9886 224.396 29.9339C223.857 29.8897 223.495 29.8402 223.495 29.8402L223.201 30.2307C224.068 30.3973 224.295 31.048 224.378 31.238Z" fill="#79242F"/>
</g>
<defs>
<clipPath id="clip0_5_467">
<rect width="204.504" height="24" fill="white" transform="translate(24 28)"/>
</clipPath>
</defs>
</svg>
