<svg width="197" height="81" viewBox="0 0 197 81" fill="none" xmlns="http://www.w3.org/2000/svg">
<g clip-path="url(#clip0_1374_14610)">
<path d="M36.0993 51.6609C36.0993 51.6609 36.0742 51.6609 36.0635 51.6609V51.7293H36.0993V51.6609Z" fill="white"/>
<path d="M52.8991 49.424L45.9902 28.3164H43.6102V28.3848C44.0472 28.3848 44.3831 28.7847 44.6503 29.2889L38.8936 47.8463H39.3306L40.2226 44.9756H49.7823L51.2233 49.424C51.6242 50.6631 50.855 51.6644 49.981 51.6644V51.7329H55.1455V51.6644C54.2751 51.6644 53.1988 50.4254 52.8991 49.424ZM40.3562 44.5397L44.849 29.822C44.9176 29.9229 44.9501 30.0562 44.9826 30.157L49.6451 44.5397H40.3562Z" fill="white"/>
<path d="M28.9554 28.3166L28.9879 28.385C28.15 28.385 27.5107 29.7214 27.5107 30.593V51.3332H39.3132C41.3574 51.3332 43.1704 49.1252 43.5712 48.023H43.6399L42.802 51.7006V51.7331H24.4951V51.6646C25.333 51.6646 25.9361 50.3283 25.9361 49.4242V30.5894C25.9361 29.7214 25.333 28.3814 24.4951 28.3814V28.313H28.9554V28.3166Z" fill="white"/>
<path d="M64.876 51.7978V45.8438H65.0096C65.3455 49.9248 68.0614 51.5961 70.7122 51.5961C73.3631 51.5961 76.1801 49.9248 76.1801 46.6794C76.1801 40.5597 65.5152 38.6506 65.5152 32.5957C65.5116 29.6853 68.0614 28.0464 70.5786 28.0464C73.262 28.0464 74.3346 29.552 75.0713 29.552C75.642 29.552 75.8442 29.0153 75.8442 28.3814H75.9778V33.8996H75.8117C75.6456 30.2544 73.0272 28.5146 70.6147 28.5146C68.567 28.5146 66.5228 29.5844 66.5228 31.8609C66.5228 37.181 77.4911 39.1549 77.4911 45.977C77.4911 49.9572 74.2371 52.032 70.5822 52.032C67.8988 52.032 66.5228 50.6272 65.7536 50.6272C65.2155 50.6272 65.0168 51.1639 65.0168 51.7978H64.8832H64.876Z" fill="white"/>
<path d="M81.4014 39.9905C81.4014 34.004 84.4531 28.0139 90.5566 28.0139C96.6601 28.0139 99.6793 34.0004 99.6793 39.9905C99.6793 45.9806 96.6601 51.9311 90.5241 51.9311C84.3881 51.9311 81.4014 45.9446 81.4014 39.9905ZM89.5851 28.4822C79.6245 29.3178 81.47 52.2985 91.4956 51.4628C101.456 50.6596 99.6107 27.6789 89.5851 28.4822Z" fill="white"/>
<path d="M103.921 51.6646C104.759 51.6646 105.362 50.3283 105.362 49.4242V30.5894C105.362 29.7214 104.759 28.3814 103.921 28.3814V28.313H108.381L108.414 28.3814C107.576 28.3814 106.937 29.7178 106.937 30.5894V49.4242C106.937 50.5264 107.709 51.6646 108.414 51.6646L108.381 51.7331H103.921V51.6646Z" fill="white"/>
<path d="M113.462 51.6646C114.3 51.6646 114.903 50.3283 114.903 49.4242V30.5894C114.903 29.7214 114.3 28.3814 113.462 28.3814V28.313H125.839L126.442 32.0266H126.373C126.106 31.2234 124.629 28.7164 122.585 28.7164H116.481V39.8213H120.472C122.184 39.8213 123.123 38.8164 123.123 37.1775H123.224V42.865H123.123C123.123 41.2261 122.184 40.2211 120.472 40.2211H116.481V51.326H122.819C124.864 51.326 126.944 49.2189 127.413 48.0158H127.482L126.377 51.6934V51.7259H113.466V51.6574L113.462 51.6646Z" fill="white"/>
<path d="M160.19 51.7978V45.8438H160.324C160.66 49.9248 163.376 51.5961 166.027 51.5961C168.678 51.5961 171.495 49.9248 171.495 46.6794C171.495 40.5597 160.83 38.6506 160.83 32.5957C160.83 29.6853 163.379 28.0464 165.893 28.0464C168.576 28.0464 169.649 29.552 170.386 29.552C170.956 29.552 171.159 29.0153 171.159 28.3814H171.292V33.8996H171.126C170.96 30.2544 168.342 28.5146 165.929 28.5146C163.881 28.5146 161.837 29.5844 161.837 31.8609C161.837 37.181 172.806 39.1549 172.806 45.977C172.806 49.9572 169.552 52.032 165.897 52.032C163.213 52.032 161.837 50.6272 161.068 50.6272C160.53 50.6272 160.331 51.1639 160.331 51.7978H160.198H160.19Z" fill="white"/>
<path d="M147.222 36.8641C146.297 38.3733 145.373 39.6772 144.452 40.783C143.531 41.8852 142.725 42.476 142.035 42.5588C141.635 42.6056 141.353 42.512 141.183 42.2742C141.013 42.0401 140.966 41.6907 141.042 41.2333C141.1 40.8839 141.227 40.4913 141.422 40.0518L141.443 39.9978C140.992 40.801 140.486 41.489 139.926 42.0725C139.367 42.6525 138.785 42.9658 138.182 43.009C137.687 43.0415 137.348 42.8902 137.16 42.5588C136.976 42.2274 136.929 41.7772 137.023 41.2009C137.138 40.5093 137.424 39.7565 137.886 38.9388C138.348 38.1248 138.901 37.4188 139.551 36.828C140.197 36.2373 140.851 35.9023 141.508 35.8267C141.649 35.8087 141.794 35.8051 141.938 35.8159C142.317 35.8519 142.559 36.0212 142.675 36.3238C142.787 36.6263 142.794 36.9865 142.693 37.4044C143.39 36.0032 144.051 34.6921 144.683 33.4746C145.311 32.2571 145.708 31.5259 145.871 31.2882C146.055 31.0217 146.247 30.8452 146.452 30.7587C146.658 30.6723 146.907 30.6146 147.196 30.5786C146.893 30.9856 145.712 33.2225 143.653 37.2927L143.639 37.3071L143.617 37.3611C143.155 38.2256 142.729 39.0865 142.335 39.9438C141.981 40.6966 141.772 41.2873 141.703 41.7087C141.617 42.2382 141.768 42.4796 142.158 42.4363C142.783 42.3643 143.52 41.8096 144.372 40.7722C145.224 39.7348 146.149 38.4345 147.149 36.8749L147.225 36.8677L147.222 36.8641ZM140.197 41.7015C140.804 40.9451 141.346 40.1023 141.826 39.1729C141.938 38.9388 142.007 38.7911 142.035 38.7263L142.476 37.8294C142.559 37.6169 142.621 37.4044 142.657 37.1882C142.722 36.792 142.682 36.4751 142.537 36.2373C142.393 35.9996 142.115 35.9023 141.696 35.9528C141.19 36.0104 140.652 36.3634 140.085 37.0081C139.518 37.6529 139.02 38.4057 138.59 39.2774C138.16 40.1455 137.893 40.9091 137.785 41.5647C137.716 41.9789 137.723 42.2995 137.81 42.5336C137.893 42.7677 138.063 42.8758 138.319 42.865C138.966 42.8506 139.59 42.4651 140.197 41.7087V41.7015Z" fill="white"/>
<path d="M153.26 36.158C152.382 37.678 151.432 39.0036 150.414 40.131C149.396 41.2584 148.424 41.8779 147.503 41.9824C147.377 41.9968 147.283 42.004 147.218 42.004C146.658 41.9896 146.268 41.7699 146.055 41.3485C145.838 40.9234 145.788 40.3795 145.896 39.7168C146.012 39.018 146.279 38.2976 146.698 37.5628C147.117 36.828 147.633 36.2084 148.243 35.7114C148.857 35.2143 149.504 34.9513 150.183 34.9225C150.562 34.9045 150.829 35.0018 150.985 35.2179C151.14 35.434 151.187 35.7258 151.129 36.0932C151.064 36.4894 150.891 36.9036 150.605 37.343C150.32 37.7825 149.963 38.1643 149.529 38.4849C149.096 38.8091 148.637 39 148.157 39.054C147.741 39.1008 147.348 39.0432 146.976 38.8739V38.8487C146.806 39.2989 146.687 39.7312 146.618 40.1454C146.535 40.6569 146.55 41.0711 146.665 41.3809C146.781 41.6942 147.005 41.8563 147.337 41.8707C147.395 41.8707 147.485 41.8671 147.608 41.8527C148.464 41.7519 149.377 41.1648 150.345 40.0842C151.313 39.0072 152.259 37.6996 153.18 36.1652L153.256 36.158H153.26ZM149.009 35.6033C148.608 35.9635 148.233 36.4245 147.882 36.9901C147.532 37.5556 147.239 38.1463 147.008 38.7622C147.406 38.9171 147.81 38.9711 148.218 38.9243C148.684 38.8703 149.117 38.6938 149.522 38.3948C149.926 38.0959 150.259 37.7393 150.519 37.3286C150.779 36.9144 150.941 36.5182 151.003 36.1436C151.06 35.7942 151.021 35.5132 150.883 35.3043C150.746 35.0954 150.508 35.0018 150.172 35.0234C149.8 35.0486 149.414 35.2431 149.013 35.5997L149.009 35.6033Z" fill="white"/>
<path d="M135.42 48.5201C136.468 46.1572 139.321 45.2783 141.701 45.1162C144.633 44.9145 147.685 45.4692 150.491 44.3382C151.745 43.8339 152.857 43.0018 153.532 41.8204C153.615 41.6763 153.684 41.4998 153.684 41.3305C153.684 41.2117 153.623 41.1648 153.55 41.2909C152.239 43.5926 149.347 44.2805 146.887 44.3778C143.965 44.4931 140.885 44.0104 138.162 45.3467C136.948 45.9411 135.919 46.874 135.366 48.1239C135.312 48.2463 135.204 48.4696 135.254 48.6065C135.301 48.7362 135.388 48.5993 135.42 48.5201Z" fill="white"/>
</g>
<defs>
<clipPath id="clip0_1374_14610">
<rect width="148.308" height="24" fill="white" transform="translate(24.4951 28.0139)"/>
</clipPath>
</defs>
</svg>
