<svg width="232" height="80" viewBox="0 0 232 80" fill="none" xmlns="http://www.w3.org/2000/svg">
<g clip-path="url(#clip0_5_475)">
<path d="M102.014 16.5339H103.875V9.73026H106.452V8H99.4375V9.73026H102.014V16.5339Z" fill="#231F20"/>
<path d="M112.884 13.1082H116.319V16.5339H118.182V8H116.319V11.3779H112.884V8H111.021V16.5339H112.884V13.1082Z" fill="#231F20"/>
<path d="M129.807 14.8645H125.21V13.0712H129.201V11.4018H125.21V9.6694H129.746V8H123.359V16.5339H129.807V14.8645Z" fill="#231F20"/>
<path d="M27.9244 72.0001H202.033L202.725 70.7915H27.2344L27.9244 72.0001Z" fill="#231F20"/>
<path d="M24 63.9986V53.191C24 51.2543 24.1898 49.7131 24.5693 48.5633C24.9488 47.4156 25.4296 46.6156 26.0097 46.1657V45.4897C25.4275 44.9941 24.9488 44.105 24.5693 42.8225C24.1898 41.5401 24 39.862 24 37.7904V28.874H53.5504V32.1171L29.4275 31.9823V44.1398H50.8032V47.4503H29.4275V60.486L54.5553 60.5533L54.0183 63.9986H24Z" fill="#1D1D1B"/>
<path d="M97.8285 28.874H132.397L131.853 32.0476H117.186V63.9965H112.162V32.0498H97.3541L97.8307 28.8762L97.8285 28.874Z" fill="#1D1D1B"/>
<path d="M189.369 64.2682C187.269 64.2682 185.382 64.0095 183.707 63.4922C182.031 62.9748 180.345 61.8836 178.648 60.2164L178.044 59.5404C176.615 59.1796 175.353 58.3144 174.258 56.9407C173.162 55.5669 172.315 53.9344 171.711 52.0433C171.107 50.1522 170.807 48.2829 170.807 46.4374C170.807 43.692 171.489 41.0227 172.852 38.4339C174.214 35.845 175.944 34.1452 178.044 33.3344L178.648 32.6584C180.345 31.0368 182.042 29.9565 183.741 29.4174C185.438 28.8761 187.314 28.6066 189.369 28.6066C191.424 28.6066 193.233 28.8761 194.93 29.4174C196.627 29.9586 198.324 31.039 200.024 32.6584L200.694 33.3344C202.124 33.9191 203.385 34.9451 204.481 36.408C205.574 37.8709 206.424 39.5055 207.027 41.3053C207.631 43.1073 207.955 44.818 208 46.4396C208.043 48.1959 207.754 50.0196 207.129 51.9107C206.503 53.8019 205.622 55.4473 204.483 56.8407C203.344 58.2362 202.081 59.1361 200.696 59.5426L200.093 60.2186C198.393 61.8402 196.686 62.9205 194.967 63.4617C193.246 64.003 191.383 64.2725 189.371 64.2725L189.369 64.2682ZM189.369 61.0946C192.408 61.0946 194.864 60.5207 196.74 59.373C198.616 58.2253 199.978 56.569 200.826 54.4083C201.673 52.2477 202.077 49.5914 202.031 46.4374C201.986 43.3747 201.585 40.7641 200.826 38.6012C200.065 36.4406 198.749 34.7625 196.873 33.5691C194.997 32.3758 192.494 31.7802 189.369 31.7802C186.51 31.7802 184.142 32.3888 182.266 33.6039C180.39 34.819 179.006 36.5188 178.111 38.7034C177.216 40.888 176.77 43.466 176.77 46.4374C176.77 51.2565 177.742 54.9148 179.685 57.4145C181.628 59.9143 184.856 61.1402 189.367 61.0968L189.369 61.0946Z" fill="#1D1D1B"/>
<path d="M65.0084 28.874L71.307 35.4255C73.0041 37.1818 74.2224 38.6795 74.9599 39.9163C75.6973 41.1553 76.0661 42.3139 76.0661 43.3942H76.603L80.7583 38.6665L89.2003 28.8718H94.4941L79.417 46.4331L96.3033 63.9943H89.6704L81.4957 55.6865C79.8418 54.0214 78.6925 52.7259 78.0456 51.8021C77.3965 50.8804 77.0731 49.9892 77.0731 49.135H76.4693L63.6046 63.9943H58.5804L74.0585 46.2287L58.1771 28.8696H65.0127L65.0084 28.874Z" fill="#1D1D1B"/>
<path d="M136.703 52.7172C136.703 50.737 136.804 49.4197 137.005 48.7654C137.205 48.1133 137.596 47.5612 138.178 47.1112V46.4352C137.598 45.9396 137.205 45.3332 137.005 44.6115C136.804 43.892 136.703 42.4726 136.703 40.3554V28.8718H155.332C157.967 28.8718 160.19 29.3348 161.999 30.2564C163.808 31.1802 165.147 32.3497 166.021 33.7691C166.892 35.1885 167.327 36.684 167.327 38.26C167.327 40.1511 166.78 41.8965 165.686 43.4942C164.591 45.094 162.413 46.1396 159.153 46.6352V47.5134C160.492 47.6938 161.654 48.3807 162.637 49.574C163.618 50.7674 164.535 52.3781 165.384 54.404C165.876 55.6191 166.702 57.3993 167.864 59.7404C169.026 61.9923 169.895 63.4117 170.478 63.9965H164.916C164.692 63.7726 164.446 63.4552 164.179 63.0509C163.912 62.6466 163.642 62.1727 163.375 61.6315C162.883 60.6859 161.945 58.5927 160.561 55.3495C159.623 53.1432 158.516 51.4543 157.244 50.2826C155.972 49.111 154.532 48.5263 152.923 48.5263H141.734V63.9943H136.707V52.715L136.703 52.7172ZM141.729 31.778V45.7592H153.322C156.582 45.7592 158.827 45.1506 160.056 43.9355C161.285 42.7204 161.9 41.0097 161.9 38.8012C161.9 36.7297 161.251 35.0429 159.957 33.7365C158.661 32.4301 157.031 31.778 155.066 31.778H141.732H141.729Z" fill="#231F20"/>
</g>
<defs>
<clipPath id="clip0_5_475">
<rect width="184" height="64" fill="white" transform="translate(24 8)"/>
</clipPath>
</defs>
</svg>
