<svg width="173" height="80" viewBox="0 0 173 80" fill="none" xmlns="http://www.w3.org/2000/svg">
<g clip-path="url(#clip0_5_472)">
<path d="M61.244 38.5116H49.7598V28H47.5V51H49.7598V39.6832H61.244V51H63.5V28H61.244V38.5116Z" fill="#5C4580"/>
<path d="M32.9609 38.6722C31.073 37.7319 28.43 36.8998 27.3866 34.8693C26.5137 33.1676 27.1633 31.0165 28.6452 29.9139C30.3909 28.6158 32.6401 29.0776 34.26 30.3383C34.9259 30.8584 35.5551 31.4284 36.1357 32.0484C36.5214 32.4561 36.8746 32.8805 37.2806 33.2675L38.393 30.7211C38.393 30.6961 37.5323 30.0596 37.4349 29.9971C35.6688 28.8737 33.5008 28 31.3978 28C27.4719 28 24.6462 30.538 24.6462 33.9082C24.6462 36.9622 27.0496 39.1008 29.5465 40.3157C31.9662 41.4932 35.7094 42.213 36.1032 45.3502C36.4808 48.3792 34.3453 51.0878 31.4709 50.8714C29.4287 50.7175 27.687 48.9658 25.6124 46.7981L24.5 49.3444L24.8207 49.6066C26.2904 50.5469 28.296 52.0447 31.3653 51.999C34.4996 51.9532 37.711 49.9644 38.3687 46.6774C39.1766 42.6207 36.1195 40.245 32.9649 38.6805L32.9609 38.6722Z" fill="#5C4580"/>
<path d="M81.2875 28H80.787L71.5 51H72.77L76.4268 42.0782H84.5927L88.1545 51H90.5L81.2875 28ZM76.8984 40.901L80.5057 31.8219L84.1294 40.901H76.8984Z" fill="#5C4580"/>
<path d="M121.278 28L115.152 48.3876L108.977 28H106.581L107.919 32.4629L103.438 48.3876L96.8962 28H94.5L101.82 51H104.217L104.049 50.4638L108.558 34.5432L113.538 51H115.93L115.767 50.4638L122.5 28H121.278Z" fill="#5C4580"/>
<path d="M148.5 28H147.303V46.9753L132.192 28.0121H129.5V28.4552L130.599 29.821V51H131.783V31.36L147.784 51H148.5V28Z" fill="#5C4580"/>
</g>
<defs>
<clipPath id="clip0_5_472">
<rect width="124.48" height="24" fill="white" transform="translate(24.5 28)"/>
</clipPath>
</defs>
</svg>
