<svg width="176" height="81" viewBox="0 0 176 81" fill="none" xmlns="http://www.w3.org/2000/svg">
<g clip-path="url(#clip0_1374_14611)">
<path d="M33.2497 38.9803C31.3609 38.0609 28.7244 37.2471 27.6846 35.2556C26.8122 33.5889 27.4587 31.484 28.9425 30.4041C30.6872 29.1326 32.9342 29.5864 34.5504 30.8188C35.2163 31.3275 35.8433 31.887 36.4236 32.4895C36.8091 32.8886 37.1635 33.3033 37.5685 33.6828L38.6784 31.1905C38.6784 31.1671 37.8217 30.5411 37.7204 30.4785C35.9563 29.379 33.791 28.5261 31.688 28.5261C27.7664 28.5261 24.9468 31.0106 24.9468 34.3088C24.9468 37.2979 27.3458 39.395 29.8421 40.5805C32.2605 41.7308 35.9991 42.435 36.3885 45.5103C36.7663 48.4759 34.6322 51.1286 31.762 50.9173C29.7213 50.7647 27.9806 49.0511 25.9126 46.9266L24.8027 49.4188L25.1221 49.6732C26.5864 50.5965 28.5959 52.0598 31.6569 52.0128C34.7879 51.9659 37.993 50.0214 38.6473 46.8053C39.4534 42.8341 36.4041 40.5101 33.2497 38.9764V38.9803Z" fill="white"/>
<path d="M145.369 38.9803C143.476 38.0609 140.832 37.2471 139.79 35.2556C138.915 33.5889 139.563 31.484 141.051 30.4041C142.8 29.1326 145.049 29.5864 146.674 30.8188C147.341 31.3275 147.97 31.887 148.552 32.4895C148.938 32.8886 149.294 33.3033 149.7 33.6828L150.812 31.1905C150.812 31.1671 149.953 30.5411 149.852 30.4785C148.083 29.379 145.912 28.5261 143.804 28.5261C139.872 28.5261 137.045 31.0106 137.045 34.3088C137.045 37.2979 139.45 39.395 141.953 40.5805C144.378 41.7308 148.126 42.435 148.517 45.5103C148.895 48.4759 146.756 51.1286 143.878 50.9173C141.832 50.7647 140.087 49.0511 138.013 46.9266L136.9 49.4188L137.221 49.6732C138.689 50.5965 140.703 52.0598 143.772 52.0128C146.912 51.9659 150.125 50.0214 150.781 46.8053C151.589 42.8341 148.532 40.5101 145.373 38.9764L145.369 38.9803Z" fill="white"/>
<path d="M61.4342 32.8152V51.7579H62.1045H63.2347H63.8153V29.621L64.2791 29.0079V28.5627H61.7148L54.1815 38.5749L46.6483 28.5627H44.084V29.0079L45.1323 30.3902V51.7579H46.2586V31.9405L54.1854 42.2572L55.4715 40.5664L61.4342 32.8152Z" fill="white"/>
<path d="M96.4526 52.014H98.8339V29.5013H105.912V28.5627H89.375V29.5013H96.4526V52.014Z" fill="white"/>
<path d="M123.543 38.4798H111.989V28.5627H109.607V52.014H111.989V39.4183H123.543V52.014H125.924V28.5627H123.543V38.4798Z" fill="white"/>
<path d="M78.0644 39.4691L70.4845 28.5627H68.1934L68.2012 29.0007L76.2924 40.8769L76.2612 52.014H78.646V40.2864L78.6343 40.2708L86.8153 28.5627H85.6756L78.0644 39.4691Z" fill="white"/>
<path d="M133.462 28.0139H131.449L130.938 33.6846H132.239L133.462 28.0139Z" fill="white"/>
</g>
<defs>
<clipPath id="clip0_1374_14611">
<rect width="126.256" height="24" fill="white" transform="translate(24.8027 28.0139)"/>
</clipPath>
</defs>
</svg>
