<svg width="175" height="80" viewBox="0 0 175 80" fill="none" xmlns="http://www.w3.org/2000/svg">
<g clip-path="url(#clip0_5_473)">
<path d="M61.4115 29.0385V28.3832H47.4043V51.6735H61.4115V51.016H50.5793V39.6661H58.7841V39.0108H50.5793V29.0385H61.4115Z" fill="#A79F88"/>
<path d="M84.1736 28.3832V46.9652L71.0342 28.3832H67.8593V51.6735H71.0342V33.0893L84.1736 51.6735H87.3486V28.3832H84.1736Z" fill="#A79F88"/>
<path d="M92.4824 28.3832V29.0385H98.5554V51.6735H101.73V29.0385H107.803V28.3832H92.4824Z" fill="#A79F88"/>
<path d="M129.669 35.6975C129.669 31.171 126.486 28.3832 122.941 28.3832H112.939V51.6735H116.114V43.014H120.458L126.367 51.6735H129.671L123.731 42.9815C126.949 42.5879 129.671 39.8975 129.671 35.6997L129.669 35.6975ZM116.112 42.3565V29.0385H120.424C123.575 29.0385 126.496 31.4997 126.496 35.6975C126.496 39.8953 123.575 42.3565 120.424 42.3565H116.112Z" fill="#A79F88"/>
<path d="M150.122 29.0385V28.3832H136.115V51.6735H150.122V51.016H139.29V39.6661H147.497V39.0108H139.29V29.0385H150.122Z" fill="#A79F88"/>
<path d="M34.2934 39.2724C31.4365 37.9943 28.6468 36.9107 28.6468 33.3358C28.6468 31.4283 29.8609 29.9317 31.6356 29.205C32.391 28.8958 33.2675 28.9022 33.999 29.2634C35.5335 30.0204 36.5723 31.491 36.7974 33.139H39.9724C39.6456 30.4032 37.345 28.0934 34.2284 28.0609H31.5361C28.1749 28.1107 25.4739 30.2864 25.4739 33.3358C25.4739 37.4038 28.6922 38.6171 31.7114 39.9623C34.7976 41.34 37.7843 43.0464 37.7843 46.524C37.7843 48.6153 36.542 50.2049 34.473 50.9229C33.6311 51.2149 32.6918 51.2214 31.8521 50.9165C29.954 50.2266 28.387 48.6824 28.1533 46.1974H24.9805C25.3094 50.1011 28.6229 52.0043 31.7741 52.0043H34.2912C38.2951 52.0043 40.955 49.7746 40.955 46.5262C40.955 42.6874 37.8038 40.8512 34.2912 39.2768L34.2934 39.2724Z" fill="#A79F88"/>
</g>
<defs>
<clipPath id="clip0_5_473">
<rect width="125.143" height="24" fill="white" transform="translate(24.9805 28)"/>
</clipPath>
</defs>
</svg>
